<?xml version="1.0" standalone="no"?>
<!DOCTYPE svg PUBLIC "-//W3C//DTD SVG 20010904//EN"
 "http://www.w3.org/TR/2001/REC-SVG-20010904/DTD/svg10.dtd">
<svg version="1.0" xmlns="http://www.w3.org/2000/svg"
 width="613.000000pt" height="680.000000pt" viewBox="0 0 613.000000 680.000000"
 preserveAspectRatio="xMidYMid meet">

<g transform="translate(0.000000,680.000000) scale(0.100000,-0.100000)"
fill="#000000" stroke="none">
<path d="M0 3400 l0 -3400 456 0 457 0 -52 50 c-48 46 -162 178 -252 290 -55
69 -90 130 -83 142 5 7 3 8 -6 3 -10 -6 -12 -4 -7 9 5 13 3 17 -7 13 -10 -4
-13 -1 -9 9 3 8 -1 14 -11 14 -14 0 -18 6 -15 26 0 4 -5 10 -12 15 -10 6 -10
10 0 22 10 13 9 15 -8 10 -23 -6 -28 6 -9 25 9 9 8 12 -5 12 -9 0 -27 17 -41
37 -25 36 -26 53 -3 53 9 0 9 -2 0 -8 -17 -11 0 -34 20 -26 21 8 21 18 2 34
-8 7 -12 17 -9 22 4 6 1 14 -6 18 -9 5 -9 9 -1 14 6 4 11 3 11 -3 0 -5 8 -8
18 -6 9 2 19 4 22 4 3 1 -2 6 -10 11 -13 8 -13 10 -1 10 11 0 9 4 -5 14 -15
12 -17 17 -6 27 10 11 12 9 12 -6 0 -18 1 -18 17 -2 14 14 15 21 6 36 -10 16
-9 18 8 14 11 -3 19 0 19 7 0 9 3 10 14 1 11 -9 15 -7 19 9 3 12 -1 24 -11 30
-15 8 -15 9 3 10 17 0 17 2 5 10 -13 8 -12 10 3 10 10 0 15 5 12 10 -3 6 1 10
9 10 8 0 20 9 26 20 9 17 7 22 -12 30 l-23 9 23 7 c16 5 21 12 17 25 -5 15 -1
19 19 19 26 0 26 0 11 -35 -8 -20 -10 -33 -4 -29 6 3 14 16 19 28 7 17 9 17 9
4 1 -18 12 -23 24 -12 3 4 0 13 -8 21 -12 12 -12 18 3 47 14 28 19 31 31 18
12 -12 16 -11 24 3 6 12 5 20 -4 26 -12 8 -12 10 0 18 8 5 12 18 8 31 -3 12
-3 19 0 16 3 -3 15 0 26 6 17 9 19 8 14 -6 -4 -11 1 -18 18 -22 31 -8 48 3 42
27 -3 10 0 22 7 27 14 11 47 7 55 -7 4 -6 15 4 26 22 15 25 20 28 23 15 4 -22
16 -23 36 -3 8 8 20 15 27 15 7 0 21 7 31 17 10 9 18 12 18 7 0 -5 -9 -16 -19
-23 -11 -8 -17 -20 -14 -28 7 -17 23 -17 23 1 0 25 16 26 39 5 32 -30 37 -17
7 16 -31 34 -33 45 -5 45 20 0 52 -23 44 -32 -4 -4 46 -3 55 2 3 1 9 2 14 1 4
-1 14 6 22 16 12 17 14 17 36 -7 13 -14 22 -32 20 -42 -2 -9 1 -19 6 -22 5 -3
8 8 7 25 -2 33 13 49 26 28 7 -11 12 -11 26 5 10 10 12 16 6 12 -9 -5 -11 -2
-6 9 4 12 14 15 31 12 14 -3 37 -1 50 4 13 5 21 5 18 0 -3 -5 1 -12 10 -15 27
-10 40 -6 22 8 -13 9 -17 27 -17 72 1 47 -6 71 -31 119 l-31 60 129 -136 c153
-159 301 -292 503 -451 126 -99 204 -154 394 -277 35 -22 74 -51 111 -80 6 -5
20 -12 32 -15 12 -4 27 -16 32 -26 6 -11 16 -17 23 -15 6 2 21 -2 31 -10 16
-12 17 -18 8 -27 -9 -9 -21 -9 -50 -1 -75 23 -149 52 -236 92 -49 22 -95 41
-102 41 -7 0 -20 7 -28 15 -11 12 -25 14 -51 9 -19 -3 -35 -10 -35 -15 0 -5 3
-9 8 -9 13 0 31 -49 20 -56 -5 -3 -1 -12 9 -20 14 -11 15 -15 5 -22 -15 -10
-6 -65 10 -56 5 3 4 11 -3 20 -7 8 -7 14 -1 14 5 0 17 -12 27 -26 16 -24 16
-26 -4 -31 -24 -6 -28 -23 -6 -23 8 0 15 -8 15 -17 1 -24 34 -63 54 -63 9 0
16 -3 17 -7 0 -5 1 -26 2 -47 2 -32 7 -42 31 -56 18 -9 30 -25 32 -40 2 -14 6
-43 10 -64 5 -31 3 -42 -11 -52 -15 -12 -15 -13 4 -24 11 -6 20 -14 20 -18 -1
-4 -1 -9 0 -12 1 -3 4 -22 6 -43 3 -31 2 -37 -9 -28 -9 8 -13 7 -13 -4 0 -13
232 -15 1889 -15 l1888 0 0 2487 0 2487 -22 24 -23 25 23 -12 22 -12 0 901 0
900 -3065 0 -3065 0 0 -3400z m6034 2450 c14 -5 26 -14 26 -20 0 -17 -26 -11
-45 10 -20 23 -17 24 19 10z m83 -56 c-7 -7 -37 7 -37 17 0 6 9 5 21 -1 11 -7
19 -14 16 -16z m-265 -624 c120 -58 239 -150 137 -106 -28 13 -101 57 -216
133 -36 24 -2 12 79 -27z m-1832 -565 c7 -8 18 -15 25 -15 7 0 15 -14 19 -31
5 -26 10 -30 27 -26 20 5 21 3 14 -39 -4 -28 -3 -44 4 -44 6 0 11 -4 11 -10 0
-5 -10 -10 -23 -10 -13 0 -27 -3 -31 -7 -4 -5 -26 -8 -48 -8 -24 0 -43 -5 -45
-12 -3 -8 5 -13 22 -13 22 0 25 -3 20 -20 -4 -12 -1 -27 5 -35 10 -12 9 -15
-8 -15 -14 0 -21 -9 -26 -30 -3 -17 -14 -33 -23 -36 -10 -3 -26 -9 -35 -14 -9
-5 -18 -5 -20 -1 -2 5 -14 4 -27 -1 -18 -6 -21 -12 -13 -20 6 -6 8 -16 5 -23
-2 -8 1 -24 7 -36 10 -18 10 -24 -2 -33 -18 -14 -19 -133 0 -141 17 -6 15 -30
-3 -49 -14 -13 -13 -20 3 -64 11 -27 27 -60 36 -73 15 -21 16 -22 16 -4 0 11
-7 29 -15 39 -8 11 -15 29 -15 40 0 12 15 -8 35 -47 19 -38 35 -72 35 -78 0
-19 -29 -8 -55 22 -14 17 -29 28 -33 25 -3 -4 -2 -10 4 -14 19 -14 49 -67 49
-89 1 -30 -3 -29 -40 7 -22 21 -32 26 -32 15 0 -8 4 -15 9 -15 4 0 8 -4 8 -10
0 -5 -8 -10 -18 -10 -15 0 -18 -6 -14 -30 2 -16 0 -30 -6 -30 -17 0 -33 27
-26 44 5 13 -1 16 -32 16 -57 -1 -125 -46 -144 -95 -9 -25 -9 -26 5 -15 11 9
18 10 28 1 8 -6 17 -7 22 -3 4 4 5 -6 1 -23 -4 -16 -14 -34 -22 -38 -11 -7
-12 -12 -4 -22 6 -7 10 -26 8 -42 -3 -25 0 -28 26 -25 35 4 31 -20 -5 -28 -27
-7 -33 -36 -8 -34 9 1 16 -5 15 -12 -4 -24 -17 -29 -31 -11 -11 15 -17 16 -34
8 -29 -16 -37 -56 -17 -86 10 -15 15 -39 13 -60 -5 -45 -10 -49 -36 -33 -23
14 -37 65 -27 103 4 15 1 34 -8 48 -9 12 -13 36 -11 55 5 38 -8 47 -82 55 -29
3 -65 13 -80 21 -57 29 -106 185 -68 216 22 18 45 76 45 113 0 17 5 47 11 66
6 20 14 48 19 64 5 15 4 41 0 59 -5 17 -6 28 -3 24 9 -9 64 45 57 56 -8 12 6
49 16 43 5 -3 11 -1 15 5 3 5 18 10 32 10 18 0 39 14 67 45 23 24 57 49 76 56
91 29 85 21 86 112 2 103 25 184 67 231 26 30 46 41 102 56 87 23 90 23 105 5z
m460 -35 c0 -5 -4 -10 -10 -10 -5 0 -10 5 -10 10 0 6 5 10 10 10 6 0 10 -4 10
-10z m-106 -449 c-6 -6 -11 1 -18 29 l-7 25 15 -25 c8 -14 12 -27 10 -29z
m166 -188 c-1 -9 -25 -43 -31 -43 -3 0 -6 11 -7 25 -1 19 3 25 18 25 11 0 20
-3 20 -7z m-640 -23 c0 -5 -4 -10 -10 -10 -5 0 -10 5 -10 10 0 6 5 10 10 10 6
0 10 -4 10 -10z m-145 -260 c3 -5 1 -10 -4 -10 -6 0 -11 5 -11 10 0 6 2 10 4
10 3 0 8 -4 11 -10z m-15 -33 c0 -4 -6 -2 -14 5 -8 7 -12 17 -9 22 5 8 23 -12
23 -27z m-49 -6 c-7 -5 -10 -14 -7 -20 4 -6 3 -11 -3 -11 -14 0 -23 18 -16 30
3 6 14 10 23 10 14 0 14 -2 3 -9z m442 -122 c-7 -7 -8 -24 -2 -47 10 -44 -9
-63 -28 -29 -18 33 -16 75 5 80 30 8 36 7 25 -4z m-9 -154 c-4 -8 -8 -15 -10
-15 -2 0 -4 7 -4 15 0 8 4 15 10 15 5 0 7 -7 4 -15z m441 -115 c-3 -5 12 -14
32 -21 21 -6 44 -19 52 -27 13 -13 16 -13 20 1 4 11 11 13 19 8 11 -7 11 -14
-3 -41 -9 -18 -23 -49 -30 -69 -11 -30 -14 -32 -14 -12 -1 15 -19 40 -52 70
-47 43 -51 50 -44 79 3 18 11 30 16 26 5 -3 7 -9 4 -14z m649 -205 c-4 -8 -8
-15 -10 -15 -2 0 -4 7 -4 15 0 8 4 15 10 15 5 0 7 -7 4 -15z m-1684 -165 c0
-5 -5 -10 -11 -10 -5 0 -7 5 -4 10 3 6 8 10 11 10 2 0 4 -4 4 -10z m547 -32
c-3 -7 -5 -2 -5 12 0 14 2 19 5 13 2 -7 2 -19 0 -25z m-432 2 c3 -5 1 -10 -4
-10 -6 0 -11 5 -11 10 0 6 2 10 4 10 3 0 8 -4 11 -10z m-415 -26 c0 -14 -4
-23 -9 -19 -11 6 -10 45 1 45 4 0 8 -12 8 -26z m128 -69 c-3 -3 -9 2 -12 12
-6 14 -5 15 5 6 7 -7 10 -15 7 -18z m132 -67 c0 -13 -23 -5 -28 10 -2 7 2 10
12 6 9 -3 16 -11 16 -16z m45 12 c3 -5 -1 -10 -9 -10 -9 0 -16 5 -16 10 0 6 4
10 9 10 6 0 13 -4 16 -10z m376 -42 c-27 -24 -71 -38 -71 -23 0 3 19 18 41 35
51 37 75 28 30 -12z m114 32 c3 -5 1 -10 -4 -10 -6 0 -11 5 -11 10 0 6 2 10 4
10 3 0 8 -4 11 -10z m-41 -24 c-7 -17 -34 -23 -34 -6 0 9 32 31 38 26 1 -2 0
-11 -4 -20z m-3028 -256 c34 -58 143 -210 207 -290 88 -110 365 -382 492 -484
61 -48 176 -131 256 -185 80 -53 155 -102 165 -109 10 -7 -8 1 -41 19 -33 17
-116 68 -185 114 -346 229 -651 532 -855 850 -57 87 -175 313 -175 331 1 5 27
-40 58 -101 32 -60 67 -126 78 -145z m2891 150 c12 0 13 -3 4 -14 -9 -11 -6
-18 18 -35 35 -25 43 -26 81 -6 41 21 88 25 94 9 3 -8 1 -14 -5 -14 -6 0 -7
-5 -2 -12 4 -7 8 -17 8 -23 0 -16 49 -5 66 14 8 10 31 22 50 26 19 4 39 10 44
14 6 3 19 6 30 7 11 1 28 5 38 9 12 5 17 3 17 -9 0 -16 59 -37 94 -33 10 1 21
-4 24 -12 3 -10 -2 -11 -19 -7 -21 6 -21 5 -6 -4 9 -6 26 -8 37 -5 25 8 26
-10 3 -25 -13 -8 -14 -13 -5 -16 17 -8 15 -36 -4 -60 -15 -18 -15 -17 -10 13
3 20 0 35 -8 43 -11 8 -17 4 -30 -21 -9 -18 -14 -41 -11 -50 4 -10 1 -28 -6
-40 -12 -23 -79 -89 -90 -89 -4 0 -9 -12 -12 -27 -6 -28 -43 -53 -78 -53 -9 0
-28 -9 -42 -20 -29 -23 -52 -25 -88 -6 -14 7 -42 16 -62 20 -20 4 -44 14 -53
24 -10 9 -21 18 -26 18 -4 1 -13 2 -20 3 -6 0 -8 4 -5 7 9 10 -53 85 -64 78
-5 -3 -9 2 -9 11 0 9 -7 24 -16 32 -8 9 -13 24 -11 34 3 10 -1 23 -9 30 -11 9
-11 15 3 35 15 23 15 26 -3 39 -19 14 -18 15 3 32 11 10 24 34 28 53 9 44 28
71 33 47 2 -10 10 -17 19 -17z m73 -44 c0 -2 -7 -7 -16 -10 -8 -3 -12 -2 -9 4
6 10 25 14 25 6z m174 -21 c3 -8 1 -15 -4 -15 -6 0 -10 7 -10 15 0 8 2 15 4
15 2 0 6 -7 10 -15z m296 -165 c0 -5 -4 -10 -10 -10 -5 0 -10 5 -10 10 0 6 5
10 10 10 6 0 10 -4 10 -10z m-3500 -1011 c0 -5 -11 -9 -25 -9 -26 0 -34 15
-12 23 16 5 37 -3 37 -14z m1785 -750 c11 -17 2 -18 -19 -3 -17 12 -17 14 -4
14 9 0 20 -5 23 -11z m-255 -403 c0 -2 -7 -7 -16 -10 -8 -3 -12 -2 -9 4 6 10
25 14 25 6z m-15 -86 c3 -5 -1 -10 -10 -10 -9 0 -13 5 -10 10 3 6 8 10 10 10
2 0 7 -4 10 -10z"/>
<path d="M3841 4144 c0 -11 3 -14 6 -6 3 7 2 16 -1 19 -3 4 -6 -2 -5 -13z"/>
<path d="M3845 3843 c11 -18 23 -33 28 -33 11 0 -8 34 -29 51 -16 12 -16 10 1
-18z"/>
<path d="M722 1179 c6 -28 42 -39 51 -16 3 8 0 14 -6 14 -7 0 -20 4 -30 8 -12
5 -17 3 -15 -6z"/>
<path d="M727 1124 c6 -15 23 -19 23 -5 0 5 -7 11 -14 14 -10 4 -13 1 -9 -9z"/>
<path d="M606 1012 c-7 -12 12 -38 21 -28 4 5 2 11 -5 13 -6 3 -10 9 -6 14 3
5 3 9 0 9 -3 0 -7 -4 -10 -8z"/>
<path d="M440 740 c0 -5 5 -10 10 -10 6 0 10 5 10 10 0 6 -4 10 -10 10 -5 0
-10 -4 -10 -10z"/>
<path d="M2115 734 c9 -9 18 -14 21 -11 9 9 -6 27 -22 27 -13 0 -13 -2 1 -16z"/>
<path d="M450 710 c0 -5 7 -10 15 -10 8 0 15 5 15 10 0 6 -7 10 -15 10 -8 0
-15 -4 -15 -10z"/>
<path d="M417 675 c-7 -17 1 -25 24 -25 12 0 16 5 13 14 -8 20 -31 27 -37 11z"/>
<path d="M2227 380 c3 -11 12 -20 19 -20 20 0 17 18 -5 29 -16 9 -18 8 -14 -9z"/>
</g>
</svg>
