<?xml version="1.0" standalone="no"?>
<!DOCTYPE svg PUBLIC "-//W3C//DTD SVG 20010904//EN"
 "http://www.w3.org/TR/2001/REC-SVG-20010904/DTD/svg10.dtd">
<svg version="1.0" xmlns="http://www.w3.org/2000/svg"
 width="611.000000pt" height="679.000000pt" viewBox="0 0 611.000000 679.000000"
 preserveAspectRatio="xMidYMid meet">

<g transform="translate(0.000000,679.000000) scale(0.100000,-0.100000)"
fill="#000000" stroke="none">
<path d="M710 6689 l0 -101 -42 7 c-24 3 -63 10 -88 15 -119 25 -327 33 -352
13 -7 -6 -47 -13 -88 -17 -41 -4 -90 -9 -108 -13 l-33 -5 3 -217 3 -216 24 1
c20 1 21 -1 9 -10 -8 -6 -13 -18 -10 -26 4 -12 3 -13 -10 -2 -14 11 -16 7 -12
-40 2 -29 3 -57 2 -63 0 -5 -3 -194 -5 -418 l-3 -408 72 7 c40 3 77 9 82 12 8
4 6 135 -10 777 -9 349 12 484 77 493 13 2 32 13 42 24 21 22 65 41 77 33 4
-3 27 -6 49 -7 23 -1 41 -5 41 -10 0 -5 5 -6 10 -3 6 3 10 1 10 -4 0 -15 43
-14 59 2 11 10 13 10 7 0 -5 -9 1 -13 21 -12 25 0 26 1 8 9 -16 7 -17 9 -3 9
9 1 20 -3 23 -9 3 -5 11 -10 16 -10 6 0 7 5 4 11 -5 7 8 8 41 3 56 -8 69 -14
31 -14 -16 0 -27 -6 -27 -14 0 -7 -15 -17 -32 -20 -29 -6 -31 -9 -17 -19 20
-15 19 -58 -1 -74 -8 -7 -34 -13 -56 -13 -23 0 -46 -6 -52 -12 -10 -13 -12
-105 -14 -586 0 -184 2 -226 14 -240 9 -9 13 -23 11 -29 -7 -20 -47 -15 -66 8
-11 12 -25 18 -33 15 -9 -3 -22 -6 -30 -6 -11 0 -14 -13 -12 -58 1 -31 -1 -63
-6 -70 -15 -25 20 -47 77 -47 29 0 60 -4 69 -9 24 -11 48 40 42 88 -4 31 -1
38 20 46 13 5 26 15 29 22 3 7 6 -38 8 -100 l4 -112 -35 0 c-19 0 -42 -4 -49
-9 -9 -6 -22 -6 -32 0 -25 13 -83 -14 -97 -45 -6 -14 -20 -27 -29 -27 -10 -1
-34 -2 -53 -3 -55 -4 -80 -15 -82 -39 -6 -73 -5 -107 3 -107 5 0 9 15 9 34 0
41 28 66 76 66 35 0 53 -16 53 -45 0 -27 6 -56 15 -80 25 -66 22 -62 35 -37 6
12 28 68 47 124 34 99 54 138 54 108 0 -9 6 -6 16 8 19 28 41 28 71 0 20 -19
25 -20 33 -8 20 32 6 -249 -24 -500 -9 -69 -16 -142 -16 -162 l0 -38 -72 0
c-40 0 -116 -5 -168 -10 -52 -5 -96 -7 -98 -5 -2 1 20 67 48 145 53 150 62
194 16 87 -24 -58 -29 -64 -52 -59 -13 2 -31 14 -39 25 l-15 21 -2 -22 c0 -12
-1 -27 -2 -34 -1 -6 14 -16 32 -20 17 -5 32 -15 32 -22 0 -15 -40 -117 -51
-130 -4 -4 2 -33 12 -64 11 -31 17 -68 14 -82 -4 -19 1 -34 20 -56 14 -16 25
-37 25 -46 0 -10 4 -18 9 -18 4 0 9 -29 10 -65 1 -43 -2 -65 -10 -65 -7 0 -9
-11 -4 -32 11 -55 19 -176 16 -233 -2 -26 -4 -27 -11 -10 -8 19 -9 19 -9 -3
-1 -15 -5 -21 -13 -16 -7 5 -8 3 -2 -7 13 -21 13 -73 0 -81 -8 -6 -8 -10 0
-15 9 -6 17 -57 10 -64 0 -1 -61 -5 -135 -8 -203 -9 -178 -27 36 -25 223 1
212 10 213 -162 0 -103 -3 -123 -18 -136 -13 -12 -55 -17 -179 -22 -90 -4
-170 -9 -178 -12 -13 -5 -15 -50 -15 -323 l0 -317 35 2 c20 2 52 8 72 13 26 7
39 7 44 0 5 -9 20 111 20 167 -1 30 35 64 62 60 23 -3 46 18 47 44 0 31 -32
45 -98 42 -69 -3 -83 11 -29 32 39 16 93 15 90 -2 -2 -7 1 -12 5 -12 5 0 9 14
9 31 0 40 24 59 74 59 42 0 57 -14 39 -35 -6 -8 -9 -19 -5 -26 4 -6 9 -37 10
-68 2 -31 6 -74 8 -96 11 -83 8 -556 -3 -569 -6 -8 -8 -20 -6 -27 2 -8 7 -26
10 -40 5 -23 14 -29 56 -39 75 -18 81 -38 14 -46 -21 -3 -42 -10 -46 -17 -6
-9 -8 -9 -8 1 0 6 -5 12 -11 12 -5 0 -7 -4 -4 -10 3 -5 -3 -10 -14 -10 -12 0
-21 -4 -21 -9 0 -5 17 -8 38 -8 51 1 132 -38 132 -63 0 -10 5 -22 11 -25 6 -5
8 -27 3 -61 -4 -34 -2 -70 7 -99 l13 -44 72 5 c59 4 72 3 77 -10 4 -11 -1 -17
-16 -21 -27 -6 -87 -2 -87 6 0 8 -60 -2 -61 -10 -9 -83 -9 -118 0 -182 8 -52
8 -84 2 -103 -15 -37 -21 -146 -12 -187 7 -32 6 -36 -20 -48 -15 -7 -31 -21
-34 -32 -9 -27 -42 -44 -60 -29 -12 10 -10 44 5 65 12 17 19 55 10 55 -5 0
-12 -5 -16 -11 -3 -6 -19 -9 -35 -5 -15 3 -31 1 -34 -4 -3 -5 -7 -60 -10 -122
-2 -70 -9 -127 -19 -149 -14 -33 -13 -36 5 -47 15 -9 19 -22 18 -56 -3 -57 4
-66 48 -59 28 5 39 2 49 -12 24 -33 16 -44 -36 -51 -28 -4 -48 -9 -45 -12 2
-3 0 -11 -6 -19 -9 -10 -8 -13 1 -13 10 0 10 -3 1 -14 -7 -9 -10 -36 -7 -73
l4 -58 93 0 92 0 -1 152 c-2 120 1 155 12 166 15 15 75 23 266 33 63 4 129 8
145 9 17 2 40 3 53 4 19 1 22 5 17 21 -4 12 -2 20 5 20 7 0 10 6 7 13 -4 10 2
13 19 9 30 -6 31 -25 1 -45 l-22 -16 31 0 c32 -1 32 -1 38 61 10 103 4 1838
-6 1844 -17 11 -21 -5 -22 -113 -1 -87 -4 -107 -15 -105 -8 2 -18 -3 -22 -10
-7 -10 -9 -10 -9 0 0 9 -5 10 -19 2 -16 -8 -21 -6 -26 11 -4 12 -3 24 1 28 5
3 9 15 9 26 -1 49 16 121 31 132 15 11 14 14 -12 23 -16 6 -36 18 -44 25 -12
11 -65 15 -232 17 -158 2 -220 6 -230 16 -7 7 -13 33 -14 58 -1 32 -9 53 -24
70 -25 26 -38 89 -30 143 4 27 11 37 34 44 25 8 32 7 48 -13 11 -14 16 -30 12
-46 -3 -13 -3 -35 0 -49 6 -23 11 -25 57 -25 27 0 138 7 247 15 108 8 238 17
287 20 50 2 139 9 200 14 72 7 112 8 119 1 14 -14 22 -13 40 5 10 11 42 16
110 18 l96 3 0 -155 c-1 -132 -3 -153 -14 -138 -11 14 -29 17 -99 17 -77 0
-87 -2 -101 -22 -9 -12 -16 -31 -16 -41 0 -10 -5 -15 -11 -12 -6 4 -8 10 -5
13 3 3 0 12 -8 21 -8 9 -15 21 -15 26 0 6 -23 11 -51 13 -39 2 -53 -1 -66 -17
-9 -10 -23 -17 -30 -14 -10 4 -12 -5 -8 -34 l4 -38 -13 35 c-22 56 -42 45 -37
-20 3 -30 4 -86 2 -125 -4 -120 -1 -1096 4 -1180 5 -101 5 -79 -2 -235 -8
-187 -7 -209 5 -223 6 -8 8 -29 4 -50 l-6 -37 68 0 c49 0 74 -5 86 -16 19 -17
16 -34 -28 -132 -11 -26 -12 -36 -3 -48 18 -21 23 -18 51 29 22 36 26 52 22
94 -5 44 -2 52 18 67 16 10 44 16 85 16 34 0 82 3 108 6 l46 7 0 45 c0 25 3
42 7 38 5 -4 10 -208 13 -452 l5 -445 -37 -10 c-39 -10 -47 -22 -26 -35 12 -7
118 -19 283 -30 156 -11 166 -24 15 -19 l-135 4 110 -10 c103 -10 138 -20 122
-35 -4 -4 -13 -1 -22 6 -13 10 -18 10 -33 -3 -9 -8 -26 -17 -37 -20 -11 -2
195 -5 457 -6 372 -1 478 2 482 12 5 9 7 9 12 0 3 -8 26 -13 58 -13 l53 0 -4
32 -3 33 10 -32 11 -33 513 0 c402 0 515 3 519 13 4 9 6 9 6 0 1 -10 46 -13
190 -13 l188 0 7 37 c10 63 10 63 -44 63 -31 0 -50 4 -50 11 0 8 -12 10 -33 6
-25 -4 -37 -1 -46 12 -16 22 -88 17 -94 -7 -4 -14 -5 -14 -6 2 -1 15 -6 17
-35 12 -20 -4 -37 -2 -41 4 -3 5 -2 10 3 10 5 0 14 11 22 24 22 42 80 56 235
56 l140 0 47 87 c74 139 67 135 119 69 56 -72 59 -72 64 -5 3 37 15 55 26 38
7 -11 12 -12 29 -1 17 10 20 10 20 -5 0 -10 -3 -28 -6 -41 -5 -18 -9 -20 -20
-11 -8 6 -11 15 -8 20 3 5 -2 6 -10 3 -32 -12 -20 -76 25 -135 22 -30 46 -53
52 -52 132 26 128 25 125 47 -3 19 -8 21 -64 18 -55 -3 -62 -1 -67 17 -3 12
-2 21 2 21 11 0 31 63 41 131 5 35 15 91 24 124 26 105 45 188 60 262 16 78
27 103 62 145 24 29 23 68 -2 68 -8 0 -14 5 -14 10 0 6 4 10 9 10 5 0 17 18
27 39 9 22 28 44 41 50 27 13 30 29 6 37 -10 3 -26 10 -37 16 -12 6 -22 6 -29
-1 -22 -22 -40 -13 -34 19 6 30 -4 44 -33 45 -12 0 -14 11 -12 49 1 27 3 51 5
52 1 1 14 0 30 -3 18 -4 29 -13 33 -29 10 -38 24 -28 24 16 0 29 5 42 20 50
13 7 20 21 20 39 0 16 7 34 15 41 8 7 15 21 15 31 0 10 4 21 10 24 6 3 10 17
10 31 0 14 4 23 9 19 6 -3 18 4 29 15 11 12 35 22 61 24 24 2 47 8 51 13 15
15 14 47 -2 83 -13 27 -17 30 -17 14 -1 -28 -32 -54 -64 -54 -22 0 -25 3 -21
28 2 15 7 32 9 39 2 7 0 15 -5 18 -24 15 6 129 39 149 4 3 6 17 4 31 -7 33
-23 22 -23 -16 0 -18 -5 -29 -14 -29 -8 0 -26 -14 -40 -31 -34 -40 -61 -33
-51 13 6 30 38 67 58 68 15 0 37 28 37 45 0 13 6 16 24 11 22 -5 24 -2 31 40
3 26 9 53 12 60 3 8 1 14 -5 14 -5 0 -13 -11 -16 -25 -4 -17 -13 -25 -27 -25
-12 0 -23 -8 -26 -19 -11 -42 -52 -32 -53 12 0 10 -6 20 -14 23 -8 3 -17 22
-21 42 -5 28 -3 39 11 49 15 11 21 10 35 -3 15 -14 18 -13 33 7 11 16 14 34
10 60 -5 30 -2 39 17 52 12 9 23 26 24 39 1 14 8 22 17 20 8 -1 19 8 25 20 16
36 34 118 28 129 -4 5 0 9 8 9 8 0 18 11 21 25 6 23 36 36 36 16 0 -5 9 -7 20
-4 29 8 25 -6 -12 -44 -31 -32 -32 -34 -12 -39 12 -3 27 -17 33 -30 17 -39 29
-28 36 33 11 108 15 122 36 128 31 10 70 51 72 77 2 12 10 37 20 55 9 18 17
39 17 48 0 8 7 15 15 15 22 0 37 36 33 83 -3 37 -1 42 18 39 25 -3 39 22 58
105 11 51 22 69 56 102 41 39 68 46 56 14 -7 -16 10 -43 25 -43 5 0 9 19 10
43 0 53 23 174 39 212 21 49 18 77 -9 102 -14 13 -38 30 -53 38 -38 21 -35 40
11 67 37 21 39 24 24 40 -14 15 -13 21 3 63 16 42 20 46 43 40 14 -4 30 -10
34 -15 11 -10 -12 -117 -31 -147 -9 -14 -11 -30 -6 -45 9 -25 11 -34 13 -60 1
-11 6 -15 16 -12 8 4 21 1 29 -5 10 -8 16 -3 26 28 7 22 10 51 8 64 -3 17 5
40 24 69 15 24 38 57 49 75 11 18 29 35 40 38 18 6 19 17 19 193 0 165 -2 184
-15 166 -19 -26 -20 1 0 36 11 19 14 60 13 160 0 74 -2 127 -5 117 -3 -11 -11
-16 -21 -13 -9 2 -78 7 -153 11 l-136 7 7 39 c5 28 4 39 -4 36 -6 -2 -12 -20
-14 -40 -5 -55 -22 -45 -22 12 0 27 -3 56 -6 65 -5 14 8 16 107 15 63 -1 105
-3 94 -6 -27 -7 -43 -23 -25 -24 8 -1 4 -5 -10 -9 -50 -16 43 -11 100 6 30 8
63 16 73 17 12 1 17 10 17 29 0 33 11 32 -202 28 -129 -2 -159 0 -163 12 -3 8
-9 72 -13 143 l-8 130 -8 -142 -8 -143 -119 -2 c-215 -4 -204 -4 -200 12 2 8
7 27 11 43 13 42 -7 32 -20 -10 -7 -21 -16 -42 -21 -47 -17 -19 -20 2 -5 40 8
22 33 98 56 169 84 259 161 445 184 445 9 0 16 -7 16 -15 0 -18 54 -47 73 -39
20 7 25 -14 26 -116 1 -47 4 -98 8 -115 5 -25 8 -18 19 45 7 41 13 101 13 134
l1 58 33 -6 c27 -5 38 -1 66 25 19 17 37 27 41 22 16 -17 86 -187 151 -368
l68 -190 1 338 0 338 -21 -20 c-17 -15 -26 -18 -40 -10 -28 15 -23 31 21 74
44 43 54 91 24 116 -23 19 -100 37 -116 28 -18 -12 -66 -11 -73 1 -4 6 -11 8
-16 5 -5 -4 -9 -1 -9 4 0 6 3 11 8 11 4 0 13 4 21 9 11 7 7 16 -22 43 -28 27
-35 40 -30 58 5 19 3 22 -10 17 -11 -4 -14 -2 -10 9 8 22 -3 17 -21 -11 -12
-18 -13 -23 -2 -19 8 3 16 -3 19 -16 4 -16 2 -20 -10 -16 -8 3 -21 6 -29 6
-10 0 -13 12 -10 44 2 32 -1 47 -11 50 -12 5 -14 81 -12 505 2 274 6 526 9
560 l6 61 -83 0 c-69 0 -84 -3 -92 -18 -5 -10 -23 -71 -41 -137 -46 -176 -49
-185 -70 -185 -10 0 -20 5 -22 11 -4 11 14 196 28 284 l6 45 -170 0 -171 0 15
-35 c14 -34 19 -87 9 -97 -3 -3 -7 -74 -8 -157 l-2 -152 25 -14 c14 -8 36 -16
50 -19 17 -4 30 -17 42 -46 10 -22 20 -40 24 -40 3 0 2 5 -2 12 -4 6 -3 8 4 4
19 -11 -20 -77 -84 -143 -34 -35 -64 -60 -68 -56 -3 4 -17 7 -31 8 -35 1 -46
-28 -43 -125 2 -47 1 -130 -1 -185 -5 -124 -4 -138 9 -130 6 3 10 -1 10 -10 0
-11 5 -15 14 -12 19 7 26 -29 22 -111 -1 -35 2 -66 7 -69 6 -3 7 -1 3 5 -9 15
7 22 19 8 21 -25 16 -36 -15 -31 -25 4 -30 2 -30 -15 0 -12 -10 -25 -24 -32
-27 -12 -45 -41 -20 -31 7 3 14 0 14 -7 0 -7 9 -20 19 -29 13 -11 19 -27 17
-44 -2 -15 1 -27 5 -27 5 0 15 -16 24 -36 13 -32 13 -37 -3 -53 -9 -10 -25
-17 -35 -16 -19 4 -87 -90 -87 -119 0 -10 -10 -26 -22 -36 -22 -17 -23 -17
-52 6 l-30 23 -12 -27 c-9 -21 -8 -33 3 -54 7 -16 16 -28 19 -28 3 0 2 5 -1
10 -3 6 0 10 8 10 15 0 27 -20 27 -46 0 -8 9 -25 20 -36 13 -14 16 -24 9 -29
-6 -3 -10 -9 -10 -13 3 -22 -1 -27 -19 -21 -24 8 -27 -16 -5 -39 8 -8 15 -22
15 -30 0 -9 5 -15 12 -13 7 1 12 -12 12 -35 0 -20 4 -35 8 -32 4 3 5 -10 3
-28 -5 -31 -4 -31 16 12 12 25 22 63 23 85 1 34 5 41 24 43 18 3 26 -4 38 -35
14 -32 14 -43 4 -68 -7 -16 -25 -63 -40 -104 -15 -41 -34 -79 -42 -85 -8 -6
-13 -16 -11 -21 2 -6 -7 -21 -20 -35 -24 -27 -51 -100 -36 -100 5 0 9 -9 9
-20 0 -17 6 -20 41 -18 23 1 44 -4 48 -11 5 -8 18 9 35 46 15 32 31 65 36 73
47 78 101 213 105 260 8 102 37 265 56 312 13 36 15 55 8 80 -13 46 -11 96 5
170 8 35 17 88 20 118 3 30 8 66 11 80 3 14 8 43 11 65 2 22 9 63 14 90 5 28
12 77 15 110 6 66 42 204 56 219 5 6 9 28 9 50 0 23 8 55 18 71 10 17 26 53
36 80 10 28 24 57 31 65 23 27 42 74 54 128 6 29 23 76 38 105 14 28 27 63 29
77 3 26 52 189 54 180 1 -3 4 -211 7 -464 4 -358 2 -460 -7 -466 -7 -4 -13
-27 -13 -50 0 -41 -1 -43 -51 -66 -28 -13 -59 -24 -68 -24 -25 0 -23 -16 2
-23 20 -5 20 -12 18 -149 l-3 -143 -25 -3 c-33 -5 -50 -20 -50 -44 0 -10 -11
-31 -25 -46 -24 -25 -27 -40 -30 -120 -1 -18 -9 -38 -19 -45 -17 -13 -32 -65
-40 -137 -2 -19 -15 -64 -29 -100 -46 -114 -78 -230 -72 -253 30 -102 50 -139
88 -167 23 -17 36 -30 29 -30 -6 0 -9 -6 -6 -14 8 -21 -24 -83 -47 -89 -11 -3
-19 -14 -19 -27 0 -11 -7 -35 -17 -53 -15 -30 -15 -31 0 -18 10 7 17 19 17 26
0 7 11 20 25 29 14 9 23 21 20 26 -8 13 54 60 71 53 11 -4 12 -9 5 -16 -14
-14 -14 -37 -1 -37 5 0 24 31 42 70 22 46 39 69 51 70 9 0 17 -4 17 -10 0 -5
-4 -10 -8 -10 -13 0 -7 -83 6 -88 7 -2 20 -1 30 3 14 5 14 7 2 16 -13 8 -13
10 -1 18 10 6 25 4 44 -5 26 -14 31 -14 46 0 24 21 38 20 51 -4 13 -24 5 -41
-15 -33 -17 6 -19 -6 -5 -42 13 -33 -12 -45 -40 -20 -20 19 -24 14 -21 -25 1
-10 -9 -16 -34 -17 -31 -1 -35 1 -35 23 l0 25 -40 -33 c-28 -24 -40 -41 -40
-60 0 -38 -25 -36 -49 3 -14 23 -17 38 -11 60 7 23 5 31 -10 39 -20 11 -53 3
-45 -11 7 -11 -28 -81 -49 -98 -23 -19 -20 -29 9 -26 23 3 25 0 25 -38 -1 -48
-27 -87 -60 -87 -29 0 -60 -18 -60 -34 0 -16 -27 -29 -41 -20 -19 11 -9 34 16
34 14 0 25 5 25 10 0 6 -4 10 -9 10 -23 0 -16 31 15 65 35 40 42 55 24 55 -5
0 -10 -4 -10 -10 0 -5 -9 -10 -20 -10 -13 0 -20 -7 -20 -18 0 -23 -30 -52 -53
-52 -9 0 -17 -7 -17 -15 0 -8 5 -15 10 -15 6 0 8 -11 4 -27 -8 -33 -21 -50
-31 -39 -4 4 -1 11 7 16 12 8 9 10 -10 10 -29 0 -50 -16 -50 -39 0 -8 -12 -32
-26 -53 -18 -25 -25 -46 -22 -63 4 -21 1 -25 -19 -25 -13 0 -25 -6 -27 -12 -2
-7 -9 -34 -16 -59 -12 -47 -48 -78 -72 -63 -6 4 -8 -1 -5 -12 3 -11 7 -39 9
-64 2 -43 1 -45 -22 -42 -39 4 -58 -17 -63 -70 -4 -49 0 -57 20 -37 7 7 11 3
11 -16 0 -15 -7 -29 -17 -33 -24 -8 -30 -23 -24 -54 6 -28 -17 -75 -44 -91 -7
-4 -13 -14 -13 -22 0 -19 -69 -15 -74 5 -2 8 -4 83 -5 166 -1 125 1 153 14
164 9 8 12 17 6 24 -4 6 -11 65 -14 131 -7 119 0 207 13 186 4 -7 12 -1 20 14
14 27 9 36 -25 48 -6 2 -11 81 -12 203 -4 489 -6 598 -10 581 -3 -10 -12 -17
-21 -15 -15 3 -17 21 -20 126 -2 96 0 122 11 122 7 0 18 -5 25 -12 9 -9 12 88
12 439 0 437 1 453 21 500 28 64 29 79 2 141 -23 52 -23 57 -23 477 l0 425
-335 0 -335 0 0 -104 c0 -58 -4 -107 -10 -111 -5 -3 -8 -18 -8 -33 1 -15 -1
-38 -5 -52 -4 -14 2 -7 12 15 16 32 26 41 54 46 l35 6 -5 -36 c-6 -42 -110
-540 -123 -592 l-10 -36 -96 -12 c-54 -7 -103 -15 -110 -18 -9 -3 -5 16 12 57
14 34 23 64 21 67 -3 2 -17 -26 -32 -62 -16 -36 -34 -70 -42 -76 -16 -14 59
169 178 429 25 55 24 61 -8 57 -15 -1 -34 1 -42 5 -9 5 -92 13 -186 19 -93 6
-188 15 -210 20 -22 5 -112 12 -200 16 -88 4 -171 8 -185 10 -67 6 -214 17
-290 20 -151 7 -189 11 -197 19 -4 4 -9 84 -11 177 -3 139 -6 169 -18 169 -12
0 -14 -29 -14 -169 0 -106 -4 -172 -10 -176 -6 -4 -40 -3 -75 0 l-65 7 0 169
0 169 -360 0 -360 0 0 -141 0 -140 -22 7 c-13 4 -74 7 -138 6 -79 0 -121 4
-135 12 -29 19 -110 28 -238 28 -62 -1 -143 5 -182 13 -38 7 -99 14 -134 14
-40 1 -68 6 -73 14 -4 6 -8 51 -8 100 0 80 -2 87 -20 87 -19 0 -20 -7 -20
-101z m3407 4 c-3 -10 -5 -4 -5 12 0 17 2 24 5 18 2 -7 2 -21 0 -30z m1146
-50 c8 -16 13 -39 12 -53 -1 -16 11 -40 32 -67 19 -23 32 -47 28 -53 -4 -7 2
-9 17 -6 18 3 24 -1 24 -15 0 -34 -39 -22 -71 22 -16 22 -30 44 -30 49 0 4
-12 21 -27 38 -14 16 -32 40 -38 53 -11 20 -10 25 10 41 28 23 27 23 43 -9z
m-1146 -30 c-3 -10 -5 -2 -5 17 0 19 2 27 5 18 2 -10 2 -26 0 -35z m308 -67
c40 -17 45 -27 13 -23 -16 1 -24 -4 -26 -18 -3 -27 39 -98 61 -101 9 -1 15 2
12 6 -9 14 -23 103 -16 93 13 -14 173 -424 169 -429 -3 -2 -19 27 -36 66 -17
38 -36 70 -42 70 -7 0 -9 -8 -5 -20 6 -19 -8 -29 -18 -12 -2 4 -2 0 0 -8 3 -8
6 -31 8 -50 3 -33 3 -34 -9 -11 -12 21 -13 19 -12 -25 1 -27 5 -54 9 -60 4 -7
1 -14 -7 -17 -9 -4 -17 3 -20 16 -23 77 -51 198 -81 346 -19 94 -37 176 -40
181 -8 13 0 13 40 -4z m-69 -63 c3 -16 21 -89 39 -163 46 -184 63 -272 73
-357 8 -67 7 -73 -10 -73 -11 0 -18 7 -18 20 0 11 -9 28 -19 37 -11 9 -18 20
-15 25 3 4 1 8 -5 8 -6 0 -20 -13 -33 -30 -12 -16 -31 -33 -42 -37 -15 -6 -4
-10 39 -14 34 -3 -27 -6 -139 -7 l-199 -2 7 53 c15 110 96 476 118 531 l11 28
79 -4 c43 -3 81 -1 84 4 10 16 24 8 30 -19z m-3424 -17 c58 -2 110 -6 117 -10
16 -10 14 -24 -6 -28 -16 -3 -16 -4 0 -20 9 -9 17 -32 17 -51 0 -29 -4 -35
-26 -40 -14 -2 -41 -1 -60 3 -19 4 -34 4 -34 0 0 -12 -73 -1 -81 12 -10 15
-49 21 -49 7 0 -6 -10 -9 -22 -7 -19 2 -24 11 -28 43 -7 58 0 105 16 105 8 0
14 4 14 10 0 5 8 3 18 -6 14 -11 46 -16 124 -18z m254 -11 c26 -20 75 -20 68
0 -5 11 -2 13 10 9 9 -3 13 -10 10 -15 -3 -5 6 -9 20 -9 14 0 26 6 26 13 0 8
3 9 8 1 10 -16 107 -29 97 -14 -5 9 25 10 121 5 71 -4 130 -8 130 -9 1 0 4
-394 5 -875 3 -693 1 -875 -8 -878 -16 -6 -17 -30 -2 -35 12 -4 26 -316 15
-344 -5 -13 -9 -15 -18 -6 -14 14 -138 16 -138 3 0 -14 39 -24 100 -25 l55 -1
7 -455 c3 -250 4 -463 1 -472 -4 -16 -17 -18 -101 -18 -53 0 -103 4 -111 9 -8
5 -25 3 -43 -7 -22 -11 -69 -16 -167 -17 -75 -1 -136 -3 -136 -4 0 -1 -124 -4
-276 -7 -200 -5 -278 -3 -283 5 -4 6 -12 9 -17 5 -6 -3 -22 -3 -36 1 -23 5
-25 10 -20 41 5 31 4 34 -14 29 -18 -6 -19 -1 -19 81 0 67 4 92 16 106 14 15
15 20 4 34 -11 12 -14 84 -14 322 l-1 307 265 1 c146 2 308 7 360 12 52 5 98
8 102 6 3 -2 14 17 24 43 9 27 25 68 35 92 11 24 19 52 19 61 0 21 -46 129
-114 270 -49 103 -61 114 -22 22 14 -32 34 -82 45 -112 18 -49 19 -53 2 -31
-15 20 -18 21 -16 5 5 -52 18 -94 29 -94 7 0 21 -7 32 -15 16 -12 11 -12 -36
1 -30 9 -55 17 -55 18 0 0 -51 152 -112 336 -141 427 -129 384 -104 371 12 -7
21 -17 21 -25 0 -7 20 -53 45 -102 52 -102 52 -95 1 21 -22 49 -33 88 -30 102
5 17 -1 25 -25 37 -16 9 -39 16 -51 16 -18 0 -20 6 -20 68 0 37 3 84 6 104 6
35 8 36 33 27 32 -13 82 -59 75 -71 -3 -4 0 -8 5 -8 6 0 11 -6 11 -14 0 -8 6
-17 13 -19 7 -3 5 -6 -5 -6 -10 -1 -18 -7 -19 -13 0 -7 -2 -22 -5 -33 -9 -43
4 -63 46 -70 22 -4 40 -11 40 -16 0 -6 5 -7 10 -4 6 3 10 25 10 48 0 24 -4 37
-8 30 -6 -10 -13 -9 -30 3 -17 11 -21 23 -18 53 2 20 8 46 14 57 10 18 11 18
20 -6 8 -19 11 -21 16 -10 3 8 8 233 11 500 5 488 7 530 20 563 9 21 44 22 71
2z m4027 -26 c-6 -6 -9 -18 -6 -27 4 -10 2 -13 -5 -8 -16 9 -15 33 1 39 20 9
22 8 10 -4z m-2706 -58 c23 -1 6 -54 -18 -57 -5 -1 -13 -2 -19 -3 -5 0 -10 -6
-10 -12 0 -5 4 -8 9 -5 11 7 24 -41 15 -55 -3 -5 0 -16 6 -24 6 -8 10 -18 7
-22 -3 -4 1 -13 8 -20 11 -10 15 2 20 65 3 42 7 86 9 97 2 11 4 -301 5 -692 1
-649 0 -713 -15 -713 -12 0 -15 6 -10 25 4 14 2 25 -3 25 -5 0 -11 -10 -15
-22 -3 -14 -20 -29 -44 -39 l-39 -16 -7 66 c-9 97 -6 453 4 476 6 14 9 15 9 5
1 -10 12 -17 34 -18 17 -1 37 -9 43 -17 6 -8 14 -12 17 -8 10 10 8 566 -2 581
-6 10 -10 7 -15 -12 -7 -27 -20 -34 -31 -16 -4 6 -11 7 -17 4 -6 -4 -8 1 -3
15 3 11 3 21 -2 21 -4 0 -8 15 -8 34 0 24 3 32 11 25 8 -7 14 7 19 47 8 63 -2
78 -42 63 l-23 -9 0 114 0 113 48 -8 c26 -4 53 -8 59 -8z m103 -20 c0 -5 10
-11 22 -15 21 -5 21 -6 6 -18 -16 -12 -16 -20 -6 -83 6 -38 14 -74 19 -79 4
-5 3 -20 -2 -34 -11 -28 7 -50 26 -31 6 6 5 13 -5 19 -13 8 -12 10 3 10 10 0
17 -8 17 -19 0 -21 -23 -45 -33 -34 -9 8 -9 -40 -1 -61 3 -9 9 -16 13 -16 10
0 33 68 26 79 -3 5 0 13 6 16 5 4 8 13 5 21 -4 12 -2 12 14 4 16 -9 20 -8 20
7 1 28 22 48 55 51 17 2 41 14 55 27 l24 25 -38 35 c-22 20 -57 40 -78 44 -37
9 -74 39 -61 51 3 3 8 -1 10 -7 5 -15 109 -18 117 -4 6 9 91 7 125 -4 12 -3
19 -10 17 -14 -3 -4 6 -8 19 -9 13 -1 26 2 29 6 5 8 70 1 121 -11 11 -3 30 -6
43 -6 25 -1 30 -26 7 -35 -18 -6 -20 -71 -4 -113 14 -38 27 -14 30 58 1 30 7
62 13 72 14 22 53 22 65 -1 11 -21 27 -142 37 -277 7 -106 7 -118 -1 -170 -4
-22 -9 -198 -11 -392 -5 -402 -9 -383 79 -382 29 1 113 -4 187 -10 74 -5 170
-10 213 -11 l78 0 -3 300 c-3 298 -3 300 18 300 32 0 138 -22 148 -30 8 -8 19
-1342 10 -1371 -3 -11 -12 -15 -24 -12 -12 3 -20 0 -20 -7 0 -6 9 -14 19 -17
11 -3 22 -15 25 -26 7 -26 8 -621 2 -628 -3 -3 -23 -3 -45 -1 -30 3 -41 9 -41
21 0 10 -3 12 -8 5 -4 -7 -45 -15 -92 -20 l-85 -8 60 -7 c33 -4 94 -7 136 -8
l76 -1 -1 -332 -1 -333 -29 2 c-16 1 -36 9 -46 18 -17 15 -19 15 -28 -2 -9
-16 -25 -18 -166 -16 -104 2 -157 -1 -162 -9 -4 -6 0 -15 9 -20 22 -12 47 -38
47 -49 0 -21 -81 4 -112 35 -36 35 -128 62 -128 36 0 -5 16 -17 35 -26 51 -24
44 -39 -25 -54 -53 -11 -62 -11 -85 4 -14 9 -30 14 -35 11 -10 -6 -14 -1702
-4 -1729 6 -15 24 -16 198 -11 261 8 329 13 343 28 7 7 17 33 22 57 20 99 62
240 100 337 22 56 43 120 47 142 18 111 24 19 24 -359 0 -407 0 -411 -20 -405
-23 7 -26 -7 -6 -28 23 -23 27 -68 29 -336 l2 -254 24 -4 c28 -4 41 -13 20
-13 -18 0 -41 -48 -25 -53 17 -6 -14 -32 -48 -41 -17 -4 -33 -2 -42 5 -8 7
-17 9 -21 5 -3 -3 -15 2 -26 11 -11 10 -17 12 -13 6 4 -8 1 -13 -9 -13 -9 0
-15 -6 -13 -12 3 -8 26 -14 54 -16 48 -3 74 -15 61 -28 -3 -4 -102 -2 -219 4
-117 5 -217 7 -223 4 -15 -9 -68 -13 -85 -6 -8 4 -24 9 -35 10 -11 2 -30 6
-42 9 -12 3 -28 -2 -37 -10 -8 -8 -18 -15 -22 -15 -13 0 5 175 19 179 29 10
-118 30 -228 30 -138 1 -203 -10 -120 -20 l50 -6 -52 -1 c-42 -2 -51 -5 -47
-17 5 -11 -1 -15 -21 -15 -16 0 -24 -4 -19 -11 3 -6 14 -9 24 -6 22 6 27 -4
34 -69 3 -30 2 -39 -2 -24 -7 21 -13 24 -40 22 -43 -5 -72 6 -72 26 -1 31 -30
-18 -30 -50 0 -15 -4 -28 -9 -28 -5 0 -18 -3 -28 -6 -17 -5 -17 -5 1 10 17 14
17 16 -10 51 -15 20 -35 40 -45 45 -30 17 -115 11 -165 -10 -57 -25 -122 -89
-103 -101 8 -4 10 -12 5 -16 -5 -4 -11 -2 -14 6 -3 10 -10 8 -25 -10 l-19 -24
17 28 c9 16 14 31 11 34 -2 3 6 15 20 28 24 22 24 58 0 53 -6 -1 -26 13 -44
31 l-33 34 3 403 c2 221 5 405 8 408 8 8 50 -5 50 -15 0 -5 -9 -9 -20 -9 -11
0 -20 -4 -20 -10 0 -5 1 -10 3 -11 1 0 23 -3 49 -6 l47 -5 -2 89 -2 88 -35 -3
c-19 -2 -42 -8 -51 -13 -24 -12 -27 20 -21 209 4 115 8 150 14 130 5 -16 16
-28 23 -28 8 0 17 -9 20 -20 3 -11 10 -20 14 -20 4 0 9 -19 10 -42 1 -24 4
-54 6 -68 2 -14 4 -29 4 -34 1 -5 4 -6 8 -2 10 10 11 46 14 831 1 396 -1 730
-5 743 -7 22 -14 25 -76 26 l-35 1 -3 170 -2 171 87 2 c231 7 276 11 310 27
25 12 38 14 46 6 14 -14 67 -14 67 -1 0 6 17 10 38 9 111 -4 498 14 530 25 25
9 65 11 125 7 83 -6 112 -1 87 14 -8 5 -8 11 0 20 7 9 7 21 0 40 l-11 28 -142
-7 c-78 -3 -293 -11 -477 -16 -388 -11 -570 -19 -622 -25 -28 -4 -38 -2 -38 9
0 7 -3 28 -6 45 l-6 31 47 0 c60 0 53 10 -12 17 -87 9 -59 13 78 11 96 -1 120
-3 84 -8 -86 -12 163 -15 326 -5 l96 7 37 79 c20 43 36 86 36 95 0 19 -43 130
-135 349 -34 83 -68 168 -75 190 -7 22 -26 71 -42 108 -16 38 -31 79 -32 91
-4 35 -15 46 -46 46 -55 0 -60 7 -60 79 0 41 4 61 9 52 5 -7 14 -11 20 -7 6 4
27 0 46 -10 19 -9 41 -14 49 -11 7 3 25 -1 40 -8 19 -10 25 -11 20 -2 -3 7 3
1 14 -12 10 -13 24 -21 30 -17 6 3 13 2 17 -3 3 -6 15 -7 28 -2 32 13 96 4
109 -14 5 -6 8 -5 8 3 0 6 6 12 13 12 7 0 21 16 30 35 22 46 34 44 42 -5 18
-109 29 6 30 335 l0 110 -40 3 c-68 4 -86 -4 -79 -36 3 -15 6 -34 6 -42 0 -8
5 -21 10 -27 6 -7 8 -20 4 -28 -3 -9 1 -31 8 -50 8 -18 12 -36 9 -38 -2 -3 5
-15 16 -26 24 -24 28 -76 7 -97 -8 -8 -17 -14 -19 -14 -2 0 -7 24 -11 53 -12
86 -11 79 -37 167 -16 54 -47 64 -105 33 -36 -19 -54 -23 -83 -18 -20 4 -49 9
-66 11 -16 2 -46 7 -65 12 -21 5 -46 5 -59 0 -13 -5 -33 -6 -44 -2 -20 6 -40
-13 -31 -28 3 -5 22 -15 41 -23 54 -23 34 -27 -23 -6 -49 19 -49 19 -52 67 -2
27 -8 54 -13 61 -10 12 -3 1380 7 1416 5 17 24 24 24 8z m64 -3 c-3 -4 -9 -8
-15 -8 -5 0 -9 4 -9 8 0 5 7 9 15 9 8 0 12 -4 9 -9z m1046 -68 c0 -5 -5 -10
-11 -10 -5 0 -7 5 -4 10 3 6 8 10 11 10 2 0 4 -4 4 -10z m-207 -44 c6 -7 7 -4
3 7 -4 12 0 17 15 17 14 0 19 -5 16 -14 -3 -8 5 -24 18 -36 22 -21 24 -30 21
-89 -2 -36 -6 -73 -8 -81 -1 -8 3 -14 10 -12 8 1 11 -2 7 -8 -4 -6 -2 -16 4
-23 6 -8 6 -18 1 -27 -13 -21 -12 -43 1 -34 7 4 7 -1 -1 -16 -6 -12 -9 -24 -6
-27 3 -4 2 -11 -3 -17 -16 -21 -32 -82 -41 -154 -4 -40 -11 -76 -14 -79 -3 -4
-18 0 -33 7 -16 7 -35 15 -43 16 -21 4 -49 41 -56 73 -3 14 -16 67 -29 117
-36 134 -39 158 -21 151 12 -5 15 3 15 41 -2 116 25 193 76 212 20 8 53 -4 68
-24z m-3473 -60 c0 -2 -7 -6 -15 -10 -8 -3 -15 -1 -15 4 0 6 7 10 15 10 8 0
15 -2 15 -4z m4614 -132 c3 -8 2 -12 -4 -9 -6 3 -10 10 -10 16 0 14 7 11 14
-7z m-96 -19 c-3 -3 -9 2 -12 12 -6 14 -5 15 5 6 7 -7 10 -15 7 -18z m-2141
-47 c-3 -8 -6 -5 -6 6 -1 11 2 17 5 13 3 -3 4 -12 1 -19z m1577 -207 l12 -69
-41 -6 c-22 -3 -65 -8 -95 -11 l-55 -6 -27 65 c-14 35 -21 63 -15 60 22 -8
197 -31 197 -26 0 19 -38 42 -68 42 -20 0 -32 3 -28 7 7 7 97 21 105 16 2 -1
9 -33 15 -72z m96 68 c0 -6 -9 -8 -20 -4 -11 4 -20 2 -20 -4 0 -11 41 -19 110
-20 25 -1 95 -5 155 -9 126 -9 145 -7 145 19 0 11 5 19 11 19 7 0 9 -9 5 -22
-3 -13 -6 -29 -6 -35 0 -15 -56 -18 -65 -3 -4 7 -12 7 -25 0 -10 -5 -30 -10
-44 -10 l-26 0 20 -20 c11 -11 20 -27 20 -35 0 -13 -23 -15 -149 -15 l-148 0
-7 43 c-4 23 -9 57 -12 75 -6 30 -5 32 25 32 17 0 31 -5 31 -11z m-257 -26
c-7 -2 -19 -2 -25 0 -7 3 -2 5 12 5 14 0 19 -2 13 -5z m846 -12 c-47 -15 -159
-23 -159 -12 0 9 52 16 145 18 34 1 36 0 14 -6z m51 -8 c-1 -13 -29 -59 -30
-48 0 21 13 55 21 55 5 0 9 -3 9 -7z m-4013 -80 c-2 -16 -4 -3 -4 27 0 30 2
43 4 28 2 -16 2 -40 0 -55z m-17 -32 c0 -5 -17 -13 -37 -18 -22 -6 -37 -15
-35 -22 1 -7 -2 -10 -7 -7 -5 4 -28 2 -50 -3 -59 -13 -50 0 22 31 63 28 107
35 107 19z m125 -6 c40 -18 16 -19 -26 0 -19 8 -27 14 -19 14 8 0 29 -6 45
-14z m3523 1 c7 -4 12 -14 12 -22 0 -10 -13 -14 -47 -15 -27 0 -70 -1 -98 -3
-59 -3 -247 12 -290 23 -29 7 -28 8 20 15 33 5 51 4 53 -3 2 -7 8 -6 17 2 10
10 51 13 167 12 84 -1 159 -5 166 -9z m177 -18 c7 -7 -1 -9 -22 -6 -18 3 -33
1 -33 -4 0 -4 -9 -8 -20 -8 -19 0 -19 1 -3 20 17 20 56 19 78 -2z m-3455 -57
c0 -36 -10 -45 -26 -23 -17 22 -18 49 -1 55 19 7 27 -2 27 -32z m2773 33 c-7
-3 -9 -12 -6 -20 7 -20 1 -18 -20 6 -16 19 -16 20 11 19 15 0 22 -3 15 -5z
m-3180 -85 c-3 -84 -13 -88 -13 -6 0 37 3 67 8 67 4 0 6 -28 5 -61z m-170
-113 c22 -17 22 -33 -3 -46 -14 -8 -26 -8 -40 0 -24 13 -25 23 -4 44 19 19 24
19 47 2z m165 -73 l-3 -88 -30 -2 c-28 -2 -28 -1 -5 6 24 7 25 10 24 89 0 45
3 82 8 82 5 0 7 -39 6 -87z m5327 47 c19 -36 19 -41 0 -34 -21 8 -19 -2 6 -27
19 -19 20 -22 4 -39 -9 -10 -31 -24 -48 -31 -18 -7 -35 -19 -40 -25 -4 -7 -14
-11 -23 -7 -12 4 -15 20 -13 72 3 82 6 90 28 84 9 -2 25 5 35 16 25 28 33 26
51 -9z m53 -42 c19 -19 15 -50 -5 -46 -12 2 -18 13 -18 31 -1 30 5 33 23 15z
m-38 -103 c0 -9 -6 -12 -15 -9 -8 4 -12 10 -9 15 8 14 24 10 24 -6z m-5095
-145 c21 -58 41 -113 46 -122 9 -17 54 -164 107 -348 17 -58 34 -113 37 -123
7 -16 0 -18 -91 -15 l-99 3 -9 54 c-8 53 -9 54 -22 30 -19 -35 -18 -69 4 -70
14 0 14 -1 -3 -7 -18 -7 -66 -8 -211 -3 l-50 1 2 123 c2 149 11 243 28 322 8
33 17 89 20 125 10 99 9 97 123 76 31 -6 63 20 63 52 0 42 15 15 55 -98z
m5140 -13 c1 -1 5 -19 8 -39 5 -33 3 -38 -13 -38 -11 0 -24 -8 -29 -17 -9 -16
-12 -16 -21 -3 -5 8 -15 32 -22 53 -10 32 -9 40 3 48 11 8 68 5 74 -4z m-534
-44 c-8 -15 -10 -15 -11 -2 0 17 10 32 18 25 2 -3 -1 -13 -7 -23z m-331 -62
c0 -12 -9 -20 -25 -23 -30 -6 -43 23 -25 57 12 22 13 22 31 4 10 -10 19 -27
19 -38z m107 8 c6 -6 8 -19 6 -30 -4 -14 -14 -19 -39 -19 -53 0 -39 51 17 59
3 1 10 -4 16 -10z m-646 -199 c9 -33 10 -199 3 -228 -5 -19 -12 -23 -38 -20
-40 4 -54 33 -57 118 -3 92 -2 95 27 129 30 36 56 37 65 1z m-2116 10 c3 -5 2
-10 -4 -10 -5 0 -13 5 -16 10 -3 6 -2 10 4 10 5 0 13 -4 16 -10z m-80 -39 c-6
-5 -21 -12 -35 -15 -24 -7 -24 -6 -6 8 21 17 57 23 41 7z m-26 -166 c0 -44 -4
-89 -9 -100 -5 -13 -9 24 -9 100 0 76 4 113 9 100 5 -11 9 -56 9 -100z m74
-12 c2 -40 0 -73 -4 -73 -5 0 -9 37 -8 83 1 96 6 92 12 -10z m-33 57 c0 -5 -4
-10 -10 -10 -5 0 -10 5 -10 10 0 6 5 10 10 10 6 0 10 -4 10 -10z m0 -45 c0 -8
-2 -15 -4 -15 -2 0 -6 7 -10 15 -3 8 -1 15 4 15 6 0 10 -7 10 -15z m0 -104 c0
-44 -4 -83 -10 -86 -6 -4 -10 25 -10 79 0 51 4 86 10 86 6 0 10 -33 10 -79z
m40 -46 c0 -19 -4 -35 -10 -35 -11 0 -14 53 -3 63 11 12 13 8 13 -28z m-88
-10 c2 -19 0 -35 -4 -35 -4 0 -8 16 -8 35 0 19 2 35 4 35 2 0 6 -16 8 -35z
m3298 11 c0 -8 -4 -18 -10 -21 -5 -3 -10 -1 -10 4 0 7 -48 11 -140 11 -77 0
-140 -3 -140 -7 0 -5 22 -6 50 -5 31 3 50 0 50 -7 0 -7 31 -10 88 -8 48 1 93
-2 100 -6 6 -5 12 -26 12 -48 l0 -39 -100 -2 c-55 -1 -125 -2 -156 -3 l-56 0
-24 59 c-13 33 -22 61 -20 63 5 6 194 20 284 22 57 1 72 -2 72 -13z m-5136
-43 c4 -27 9 -62 12 -80 6 -31 5 -32 -38 -37 -23 -3 -91 -7 -150 -10 -98 -5
-108 -4 -108 12 0 9 -11 41 -25 70 -14 30 -25 55 -25 57 0 1 33 6 73 10 107
11 209 22 233 23 19 2 23 -5 28 -45z m515 37 c4 0 -7 -61 -20 -112 l-10 -38
-80 0 -81 0 6 38 c5 27 4 33 -3 22 -6 -8 -11 -25 -11 -36 0 -21 -4 -22 -125
-23 -95 -2 -126 1 -129 11 -3 7 -7 44 -11 82 l-6 69 233 -6 c128 -4 235 -7
237 -7z m138 -25 l34 -14 -16 -36 c-8 -19 -22 -51 -30 -71 -15 -33 -18 -35
-48 -29 -54 11 -67 16 -67 27 0 9 24 99 36 137 5 14 33 10 91 -14z m1211 -97
c-54 -260 -139 -653 -143 -656 -2 -3 -12 -1 -22 2 -11 5 -13 10 -7 14 19 12
35 53 33 80 -2 15 1 33 5 41 5 8 4 16 -4 21 -7 4 -10 14 -8 21 3 8 -4 19 -16
26 -21 12 -21 12 2 13 19 0 21 3 13 19 -7 11 -7 30 -1 50 5 19 5 33 -1 37 -6
4 -1 17 13 32 l23 26 -26 -16 c-15 -10 -29 -14 -32 -11 -8 7 18 33 32 33 6 0
11 5 11 10 0 6 -5 10 -12 10 -6 0 -3 9 7 20 18 20 18 21 0 34 -21 15 -24 13
-64 -73 -25 -52 -25 -52 -6 -45 8 4 15 1 15 -4 0 -6 -9 -14 -20 -17 -12 -4
-34 -33 -51 -68 -18 -34 -35 -64 -40 -65 -5 -2 -7 -7 -5 -10 2 -4 -5 -15 -15
-25 -9 -11 22 73 71 185 124 287 131 302 146 311 8 4 14 13 14 20 0 7 -4 6
-10 -3 -6 -9 -10 -10 -10 -3 0 6 6 15 13 20 13 8 88 21 98 16 4 -1 2 -22 -3
-45z m374 -28 c15 -36 71 -175 123 -310 53 -135 105 -265 116 -289 11 -24 18
-45 17 -47 -2 -1 -50 0 -107 4 l-104 7 -68 335 c-37 184 -68 343 -68 352 -1
14 6 17 31 15 30 -2 35 -8 60 -67z m-109 -110 c57 -229 98 -444 83 -429 -3 3
-10 23 -16 45 -8 33 -9 30 -4 -26 4 -36 7 -76 8 -89 l1 -23 -179 1 c-99 1
-183 4 -187 7 -4 2 -6 15 -3 28 2 14 -4 33 -15 47 l-20 24 -10 -25 c-9 -21
-10 -19 -5 15 16 105 111 541 121 555 7 9 108 5 116 -5 6 -7 10 -6 13 1 3 7
13 10 23 7 10 -3 22 0 26 7 4 6 8 10 10 8 1 -2 19 -68 38 -148z m2797 109 c0
-5 -18 -9 -41 -9 -22 0 -38 3 -35 8 6 11 76 12 76 1z m260 1 c0 -6 -46 -10
-119 -10 -69 0 -122 4 -126 10 -4 6 38 10 119 10 77 0 126 -4 126 -10z m218 3
c-32 -2 -86 -2 -120 0 -35 2 -9 3 57 3 66 0 94 -1 63 -3z m-5118 -35 c0 -9 4
-8 10 2 8 13 10 13 10 -1 0 -14 -28 -17 -216 -23 -169 -5 -219 -4 -232 6 -13
11 -11 14 14 19 16 4 116 7 222 8 147 1 192 -2 192 -11z m245 2 c4 -6 -21 -10
-68 -10 -41 0 -89 -3 -106 -6 -24 -5 -31 -3 -31 10 0 14 14 16 99 16 56 0 103
-4 106 -10z m-695 -10 c0 -5 -6 -10 -14 -10 -8 0 -18 5 -21 10 -3 6 3 10 14
10 12 0 21 -4 21 -10z m5510 6 c0 -9 -30 -14 -35 -6 -4 6 3 10 14 10 12 0 21
-2 21 -4z m-252 -23 c-5 -25 -28 -28 -28 -4 0 12 6 21 16 21 9 0 14 -7 12 -17z
m117 8 c3 -5 1 -12 -4 -15 -5 -3 -11 1 -15 9 -6 16 9 21 19 6z m-5420 -20 c16
-6 20 -19 22 -71 3 -66 -14 -110 -41 -110 -8 0 -17 -6 -19 -12 -3 -7 -6 -2 -7
12 -3 44 1 163 6 171 2 4 -6 10 -18 12 -18 3 -16 4 7 5 17 0 39 -3 50 -7z
m5490 -52 c11 -17 -1 -21 -34 -14 -17 4 -29 11 -25 16 7 12 51 11 59 -2z
m-235 -164 c19 -23 -1 -40 -30 -25 -17 9 -19 14 -9 26 15 18 23 18 39 -1z
m406 -20 c9 -38 -3 -85 -36 -134 -17 -24 -30 -50 -30 -58 0 -7 -7 -13 -16 -13
-14 0 -14 2 0 22 9 12 16 33 16 45 0 12 6 37 14 55 8 18 18 50 21 71 7 43 22
49 31 12z m62 -34 c0 -17 -7 -36 -19 -47 -10 -9 -19 -12 -19 -7 0 12 29 83 34
83 1 0 3 -13 4 -29z m-5755 -32 l-7 -44 -6 35 c-3 19 -2 41 3 48 15 20 18 8
10 -39z m5327 26 c0 -8 -4 -15 -10 -15 -5 0 -7 7 -4 15 4 8 8 15 10 15 2 0 4
-7 4 -15z m-159 -63 c23 -4 44 -13 47 -20 6 -18 -28 -27 -50 -13 -23 15 -48
-1 -48 -30 0 -10 -4 -21 -10 -24 -14 -9 -12 -21 5 -38 13 -13 11 -16 -17 -26
-27 -10 -35 -8 -53 9 -12 11 -29 20 -38 20 -30 0 -19 37 15 51 47 19 89 64 75
79 -9 10 -7 11 9 6 12 -4 41 -10 65 -14z m223 -8 c14 -6 14 -9 -1 -35 -18 -30
-74 -51 -81 -30 -2 6 -11 11 -19 11 -13 0 -13 3 -3 15 7 8 26 15 42 15 16 0
31 6 34 15 7 17 7 17 28 9z m-164 -54 c0 -5 -2 -10 -4 -10 -3 0 -8 5 -11 10
-3 6 -1 10 4 10 6 0 11 -4 11 -10z m50 -47 c4 -4 10 -23 13 -40 l7 -33 -50 0
c-27 0 -52 -4 -55 -10 -16 -26 -28 -9 -40 61 l-7 36 62 -3 c34 -1 66 -6 70
-11z m-2801 -107 c0 -11 -2 -16 -6 -13 -4 4 -8 26 -9 50 -2 37 -1 39 6 12 4
-16 8 -39 9 -49z m2368 53 c-4 -21 -36 -53 -45 -44 -2 2 2 18 9 34 16 35 41
42 36 10z m-4831 -69 c19 0 29 -41 13 -51 -32 -20 -56 -5 -59 36 -4 54 0 62
17 38 8 -13 21 -23 29 -23z m1739 0 c-3 -6 -13 -10 -20 -10 -12 0 -12 5 -3 25
10 22 13 23 20 10 5 -8 6 -20 3 -25z m65 16 c0 -3 -4 -8 -10 -11 -5 -3 -10 -1
-10 4 0 6 5 11 10 11 6 0 10 -2 10 -4z m231 -67 c13 -1 35 2 49 7 32 12 202 6
195 -7 -7 -11 -16 -9 82 -17 76 -7 82 -6 77 10 -4 12 0 18 11 18 10 0 15 -6
12 -13 -2 -7 -10 -38 -17 -70 -8 -41 -16 -57 -28 -58 -39 -3 -387 3 -393 7 -4
2 -10 28 -14 57 -3 28 -9 61 -11 72 -4 13 -2 16 3 8 5 -7 20 -14 34 -14z m-87
-30 c8 -53 0 -64 -10 -13 -4 22 -12 42 -18 46 -7 5 -5 8 5 8 12 0 18 -12 23
-41z m671 19 l96 3 -17 -38 c-9 -21 -20 -50 -26 -65 -10 -28 -11 -28 -100 -28
l-90 0 6 32 c12 59 29 113 32 103 3 -6 42 -9 99 -7z m2983 -103 c3 -27 -14
-49 -30 -39 -4 3 -7 20 -6 38 1 43 31 43 36 1z m-3635 10 c4 -8 2 -17 -3 -20
-6 -4 -10 3 -10 14 0 25 6 27 13 6z m2942 -35 c3 -11 13 -20 21 -20 17 0 19
-16 2 -26 -6 -4 -14 -2 -16 4 -2 7 -10 12 -17 12 -7 0 -15 7 -19 15 -3 8 -13
15 -21 15 -9 0 -13 5 -10 10 11 18 53 11 60 -10z m153 -15 c0 -15 -6 -25 -14
-25 -17 0 -17 5 -4 31 14 25 18 24 18 -6z m-63 -34 c-14 -14 -17 -14 -25 -1
-12 20 -4 29 21 23 19 -5 19 -7 4 -22z m95 9 c0 -11 -7 -20 -15 -20 -18 0 -19
12 -3 28 16 16 18 15 18 -8z m-400 -35 c0 -8 -7 -15 -15 -15 -8 0 -15 7 -15
15 0 8 7 15 15 15 8 0 15 -7 15 -15z m270 -62 c0 -17 -8 -16 -26 1 -22 22 -18
38 6 24 11 -7 20 -18 20 -25z m70 -12 c0 -6 -4 -13 -10 -16 -5 -3 -10 1 -10 9
0 9 5 16 10 16 6 0 10 -4 10 -9z m410 -20 c0 -5 -7 -11 -15 -15 -15 -5 -20 5
-8 17 9 10 23 9 23 -2z m-484 -81 c-2 -14 -5 -29 -6 -35 -6 -24 2 -35 26 -35
14 0 34 -5 45 -10 24 -13 52 -67 45 -86 -5 -13 -10 -13 -36 1 -16 8 -30 20
-30 26 0 7 -9 9 -22 6 -25 -7 -58 17 -58 43 0 9 -5 21 -10 26 -7 7 -4 19 10
36 11 15 20 39 20 55 1 21 3 24 10 13 5 -9 7 -27 6 -40z m-3834 11 c9 -10 19
-28 22 -39 6 -17 3 -19 -14 -15 -24 6 -33 19 -35 50 -1 28 5 29 27 4z m4231
-93 c-9 -29 -24 -72 -34 -95 -11 -24 -19 -47 -19 -53 0 -5 -7 -10 -15 -10 -8
0 -14 3 -13 8 3 15 -14 62 -22 57 -11 -7 -22 24 -14 37 5 7 12 4 21 -7 15 -21
29 -12 35 20 1 11 15 34 30 50 16 17 28 33 28 38 0 4 4 7 9 7 5 0 2 -24 -6
-52z m-835 -79 c-19 -13 -28 -11 -28 6 0 21 34 38 38 18 2 -9 -2 -19 -10 -24z
m232 11 c0 -5 -4 -10 -10 -10 -5 0 -10 5 -10 10 0 6 5 10 10 10 6 0 10 -4 10
-10z m-363 -90 c-9 -24 -13 -27 -20 -14 -5 8 -6 27 -2 41 4 19 9 22 19 13 11
-8 12 -17 3 -40z m853 40 c0 -5 -6 -10 -12 -10 -8 -1 -7 -6 4 -14 20 -15 35
-90 20 -100 -6 -3 -20 -2 -33 2 -16 6 -23 18 -26 45 -2 20 1 37 6 37 5 0 12
11 15 25 6 24 26 36 26 15z m-556 -51 c-3 -5 -10 -7 -15 -3 -5 3 -7 10 -3 15
3 5 10 7 15 3 5 -3 7 -10 3 -15z m304 -6 c10 -10 30 -27 45 -38 29 -22 34 -50
13 -78 -13 -17 -15 -17 -24 -2 -7 14 -13 15 -30 6 -44 -23 -59 0 -22 34 27 24
25 35 -4 35 -23 0 -24 2 -15 30 13 35 13 35 37 13z m-267 -33 c5 0 8 -13 7
-29 -2 -27 5 -48 33 -104 6 -11 5 -25 -3 -40 -14 -26 -18 -47 -22 -102 -1 -22
-10 -52 -18 -65 -9 -14 -19 -38 -22 -53 -5 -20 -12 -27 -24 -25 -9 2 -16 10
-14 16 3 17 -19 15 -47 -4 -14 -10 -19 -20 -13 -26 5 -5 1 -25 -12 -51 l-21
-42 -6 40 c-4 22 -5 52 -2 67 4 19 -3 39 -24 70 -32 48 -47 88 -32 88 18 0 21
29 5 45 -9 9 -17 14 -17 11 -1 -3 -3 -10 -4 -16 -1 -5 -3 -19 -4 -31 0 -11 -6
-17 -11 -14 -6 4 -8 15 -5 26 5 14 2 19 -12 19 -11 0 -24 5 -31 12 -16 16 -42
-8 -42 -40 0 -14 -3 -23 -6 -20 -11 12 -5 170 8 185 7 9 21 12 35 8 13 -3 23
-1 23 5 0 20 18 10 22 -13 7 -39 -1 -51 -23 -31 -18 16 -19 16 -27 -7 -5 -13
-7 -32 -4 -42 4 -16 11 -18 43 -13 39 6 79 -14 79 -39 0 -6 15 -15 33 -20 23
-7 33 -17 35 -35 9 -62 41 -47 52 25 6 40 5 45 -12 45 -33 0 -33 29 -1 56 27
22 30 29 26 68 -6 50 11 90 34 82 8 -3 19 -6 24 -6z m68 -17 c-1 -10 -4 -31
-8 -48 -7 -29 -7 -29 -15 -7 -9 27 0 72 14 72 6 0 9 -8 9 -17z m-412 -25 c-3
-7 -5 -2 -5 12 0 14 2 19 5 13 2 -7 2 -19 0 -25z m837 -14 c11 -28 6 -39 -9
-20 -8 11 -15 23 -15 28 0 14 18 9 24 -8z m-54 -42 c0 -25 -49 -82 -70 -82
-10 0 -21 -10 -25 -22 -4 -15 -8 -18 -12 -10 -3 7 2 21 11 31 9 9 19 32 22 49
5 25 14 34 38 41 17 5 32 10 34 10 1 1 2 -7 2 -17z m-618 -14 c-19 -20 -24
-21 -32 -8 -15 23 -13 26 23 28 l32 3 -23 -23z m-852 -9 c0 -11 -4 -18 -10
-14 -5 3 -7 12 -3 20 7 21 13 19 13 -6z m1336 -27 c-14 -14 -16 -14 -16 -1 0
20 23 44 29 28 2 -6 -4 -18 -13 -27z m-188 -15 c17 -1 -27 -47 -45 -47 -8 0
-16 7 -19 15 -8 21 16 47 35 39 9 -3 22 -7 29 -7z m-3728 -49 c0 -66 -24 -159
-45 -174 -8 -6 -15 -17 -15 -24 0 -9 -3 -10 -13 -1 -8 6 -17 8 -20 4 -4 -3 -7
-1 -7 6 0 7 -5 9 -11 6 -6 -4 -8 -14 -4 -22 4 -12 2 -13 -8 -5 -8 7 -20 31
-27 54 -13 45 -22 127 -11 111 3 -5 15 -15 26 -21 11 -6 24 -28 30 -52 l10
-42 23 32 c13 17 27 56 32 86 5 31 12 64 15 75 12 36 25 19 25 -33z m1933 15
c9 3 21 -1 27 -9 7 -8 9 -14 4 -14 -5 0 -2 -5 6 -11 13 -9 12 -10 -2 -5 -26 8
-32 -11 -8 -24 31 -17 24 -65 -10 -66 -34 -2 -70 13 -70 29 0 7 9 23 20 35 22
23 26 47 10 57 -5 3 -10 12 -10 18 0 8 3 7 9 -2 5 -8 16 -11 24 -8z m1897 -8
c0 -18 -4 -23 -15 -19 -8 4 -15 15 -15 25 0 10 7 19 15 19 9 0 15 -9 15 -25z
m220 2 c0 -16 -9 -28 -25 -35 -14 -7 -27 -23 -31 -39 -3 -15 -7 -32 -8 -38 -1
-5 -5 0 -8 11 -7 26 40 124 59 124 7 0 13 -11 13 -23z m-5365 -25 c0 -20 -18
-18 -21 1 -1 10 3 16 9 14 7 -2 12 -9 12 -15z m3820 -2 c0 -22 -21 -22 -22 1
-1 12 3 19 10 16 7 -2 12 -10 12 -17z m-266 1 c8 -5 9 -11 3 -15 -5 -3 -15 1
-22 9 -14 16 -3 20 19 6z m1487 -48 c-3 -7 -10 -13 -15 -13 -16 0 -23 40 -10
56 11 14 14 13 21 -7 5 -12 6 -29 4 -36z m-386 -44 c0 -5 -4 -9 -10 -9 -5 0
-10 7 -10 16 0 8 5 12 10 9 6 -3 10 -10 10 -16z m324 -27 c-6 -14 -8 -13 -14
8 -9 31 0 48 12 26 5 -10 6 -25 2 -34z m166 -41 c5 -11 6 -22 1 -25 -4 -3 -13
6 -19 19 -14 30 2 34 18 6z m-1283 -16 c42 -26 42 -38 1 -30 -39 8 -63 29 -53
45 8 12 7 13 52 -15z m-2951 -7 c-3 -13 -5 -27 -5 -31 -1 -5 -5 -6 -11 -2 -6
3 -5 15 2 30 14 31 19 32 14 3z m3779 -5 c11 -28 13 -83 3 -89 -13 -8 -88 46
-88 63 0 8 15 20 33 28 42 18 44 18 52 -2z m-3425 -85 c0 -10 -4 -18 -10 -18
-5 0 -6 -8 -3 -17 6 -16 5 -16 -10 -4 -16 12 -15 47 1 75 6 11 22 -14 22 -36z
m2556 -14 c15 -22 15 -27 3 -34 -17 -11 -26 -3 -34 33 -9 35 9 36 31 1z m1044
1 c-7 -8 -16 -15 -21 -15 -5 0 -9 7 -9 15 0 9 9 15 21 15 18 0 19 -2 9 -15z
m206 1 c3 -8 4 -26 2 -41 l-3 -27 -24 19 c-20 17 -22 22 -12 41 13 25 29 28
37 8z m-1216 -107 c0 -28 -4 -48 -9 -44 -5 3 -13 0 -17 -6 -3 -6 0 -15 7 -20
11 -7 14 -48 13 -206 0 -109 -4 -229 -8 -268 -4 -38 -8 -100 -8 -138 0 -50 -5
-73 -18 -90 l-18 -22 -11 29 c-8 20 -8 52 -1 110 5 44 12 110 15 146 3 37 11
69 18 75 11 8 16 57 7 75 -1 3 -2 16 -1 30 0 14 -2 19 -5 12 -5 -10 -10 -9
-25 4 -23 21 -26 74 -4 74 9 0 15 9 15 25 0 18 -5 25 -19 25 -16 0 -18 4 -11
33 5 17 15 48 22 68 8 20 14 56 13 80 0 27 6 48 15 56 23 18 30 6 30 -48z
m-2592 23 c2 -9 5 -57 8 -107 2 -49 7 -117 9 -150 7 -76 7 -90 6 -145 -1 -25
-1 -52 -1 -60 0 -8 -1 -24 -2 -35 -1 -11 1 -35 6 -52 5 -23 3 -39 -7 -53 -13
-19 -14 -19 -30 -2 -11 11 -19 45 -23 88 -10 114 -12 244 -3 250 5 2 6 11 2
19 -3 8 0 15 6 15 6 0 11 5 11 11 0 5 -4 7 -10 4 -5 -3 -10 1 -10 9 0 9 -4 16
-10 16 -5 0 -9 -3 -9 -7 4 -24 -3 -43 -14 -43 -14 0 -16 8 -19 93 -2 65 15 96
31 56 9 -23 10 -23 10 -3 1 30 33 125 40 119 2 -3 7 -13 9 -23z m3408 -49
c-11 -11 -17 4 -9 23 7 18 8 18 11 1 2 -10 1 -21 -2 -24z m-3783 13 c4 -10 1
-13 -9 -9 -9 3 -12 0 -9 -9 3 -8 -1 -21 -10 -28 -8 -7 -15 -19 -15 -26 0 -15
-12 -19 -23 -7 -4 3 2 12 13 20 19 14 29 40 11 28 -19 -11 -23 17 -5 30 24 19
40 19 47 1z m3711 -13 c-5 -5 -12 -12 -16 -18 -4 -6 -8 -2 -8 8 0 9 7 17 17
17 9 0 12 -3 7 -7z m101 -84 c15 -28 18 -30 34 -15 14 13 20 13 34 3 24 -19
27 -67 3 -67 -7 0 -19 -7 -26 -15 -18 -22 -32 -18 -64 21 -23 29 -27 40 -22
69 8 43 21 44 41 4z m222 1 c10 -26 9 -32 -8 -41 -11 -5 -17 -14 -14 -20 4 -5
-4 -9 -15 -9 -13 0 -24 -8 -27 -20 -3 -11 -12 -20 -20 -20 -11 0 -13 7 -9 24
4 18 1 28 -11 35 -16 8 -16 12 -3 38 8 15 16 30 17 32 1 2 10 -2 19 -10 14
-11 17 -10 25 4 15 26 33 20 46 -13z m-1164 -70 c3 -11 1 -23 -4 -26 -5 -3 -9
-19 -9 -37 0 -29 -1 -30 -15 -11 -18 24 -19 48 -3 74 16 25 24 25 31 0z m824
-77 c-3 -10 -5 -4 -5 12 0 17 2 24 5 18 2 -7 2 -21 0 -30z m371 -20 c-4 -22
-22 -20 -26 1 -2 10 3 16 13 16 10 0 15 -7 13 -17z m-85 -57 c3 -8 -1 -17 -9
-20 -9 -4 -14 1 -14 14 0 23 15 27 23 6z m-278 -36 c3 -5 1 -10 -4 -10 -6 0
-11 5 -11 10 0 6 2 10 4 10 3 0 8 -4 11 -10z m95 -20 c12 -7 10 -13 -12 -33
-15 -14 -29 -22 -32 -19 -11 10 -6 50 7 55 18 8 21 8 37 -3z m-103 -32 c-3 -8
-6 -5 -6 6 -1 11 2 17 5 13 3 -3 4 -12 1 -19z m173 -37 c0 -10 -8 -26 -18 -37
-10 -10 -21 -27 -25 -36 -3 -10 -13 -18 -21 -18 -8 0 -22 -3 -30 -6 -12 -5
-15 -2 -10 10 3 9 11 16 18 16 13 0 56 72 56 96 0 13 3 14 15 4 8 -7 15 -20
15 -29z m210 -92 c0 -38 -16 -69 -35 -69 -17 0 -20 16 -5 25 6 3 10 19 10 34
0 15 3 31 7 34 14 15 23 6 23 -24z m-73 -18 c-1 -31 -5 -39 -19 -38 -10 1 -28
11 -39 23 l-20 22 25 6 c14 3 26 11 26 16 0 6 7 10 14 10 11 0 15 -11 13 -39z
m-302 -21 c3 -5 1 -10 -4 -10 -6 0 -11 5 -11 10 0 6 2 10 4 10 3 0 8 -4 11
-10z m66 -47 c31 -14 37 -22 32 -38 -12 -42 -49 -41 -39 1 6 22 4 23 -24 18
-32 -7 -34 -5 -24 20 8 20 9 20 55 -1z m209 -73 c0 -5 -4 -10 -10 -10 -5 0
-10 5 -10 10 0 6 5 10 10 10 6 0 10 -4 10 -10z m-3581 -68 c-1 -15 1 -35 5
-44 9 -20 -9 -58 -27 -58 -7 0 -18 5 -25 12 -14 14 -16 58 -2 58 6 0 6 9 1 22
-6 15 -3 30 6 45 13 20 17 21 30 8 8 -8 14 -27 12 -43z m3541 -71 c0 -6 -11
-11 -25 -11 -26 0 -33 18 -14 37 13 13 39 -6 39 -26z m-235 -79 c3 -22 1 -44
-5 -47 -6 -4 -10 14 -10 46 0 60 7 61 15 1z m137 -30 c15 -12 17 -27 12 -91
-7 -98 -20 -138 -46 -147 -16 -5 -19 -12 -14 -35 5 -24 2 -29 -14 -29 -13 0
-18 5 -14 15 4 9 0 15 -9 15 -23 0 -28 15 -16 46 12 34 28 45 51 38 9 -2 19 0
23 6 3 5 -1 10 -9 10 -17 0 -18 2 -20 65 -1 37 -3 40 -33 43 -27 3 -33 8 -33
26 0 29 10 39 26 25 14 -11 52 -4 41 8 -10 10 14 34 27 26 6 -3 19 -13 28 -21z
m-3185 -139 c-2 -16 -4 -3 -4 27 0 30 2 43 4 28 2 -16 2 -40 0 -55z m3101 -5
c-4 -37 -15 -43 -42 -23 -18 14 -18 15 5 34 33 28 41 26 37 -11z m-3243 12 c3
-5 1 -10 -4 -10 -6 0 -11 5 -11 10 0 6 2 10 4 10 3 0 8 -4 11 -10z m-817 -22
c-2 -6 -10 -14 -16 -16 -7 -2 -10 2 -6 12 7 18 28 22 22 4z m117 2 c3 -5 -1
-10 -9 -10 -9 0 -16 5 -16 10 0 6 4 10 9 10 6 0 13 -4 16 -10z m155 0 c13 -8
13 -10 -2 -10 -9 0 -20 5 -23 10 -8 13 5 13 25 0z m60 0 c0 6 5 8 10 5 17 -11
11 -45 -8 -45 -21 0 -42 18 -42 37 0 11 5 11 20 3 14 -8 20 -8 20 0z m-130 -4
c0 -3 -4 -8 -10 -11 -5 -3 -10 -1 -10 4 0 6 5 11 10 11 6 0 10 -2 10 -4z m34
-4 c3 -5 -1 -9 -9 -9 -8 0 -12 4 -9 9 3 4 7 8 9 8 2 0 6 -4 9 -8z m466 -121
c0 -5 -6 -12 -12 -14 -8 -3 -6 -6 5 -6 9 -1 17 -5 17 -11 0 -6 -10 -5 -25 2
-19 9 -22 14 -14 25 13 15 29 17 29 4z m3345 -71 c8 -24 -1 -40 -21 -40 -8 0
-14 10 -14 23 0 40 24 51 35 17z m-25 -157 c0 -54 -13 -133 -21 -133 -10 0
-12 143 -2 153 14 14 23 6 23 -20z m70 -323 c0 -16 1 -33 3 -37 1 -3 -11 -7
-27 -8 -16 0 -31 -6 -34 -13 -5 -17 -29 -15 -36 4 -8 22 1 34 21 27 11 -4 14
-3 9 5 -4 7 -1 12 8 12 9 0 16 6 16 14 0 13 13 23 33 25 4 1 7 -12 7 -29z
m-3044 -223 c-20 -20 -26 -36 -26 -71 0 -25 5 -48 10 -51 14 -9 12 -25 -3 -25
-8 0 -14 6 -15 13 -1 6 -4 33 -8 59 -6 44 -4 49 25 79 18 17 34 29 37 26 3 -3
-6 -16 -20 -30z m139 18 l30 -14 -30 6 c-16 3 -37 9 -45 14 -27 15 11 10 45
-6z m66 -32 c13 -17 13 -17 -6 -3 -11 8 -22 16 -24 17 -2 2 0 3 6 3 6 0 17 -8
24 -17z m379 5 c0 -9 4 -8 11 2 8 11 9 1 6 -37 -2 -29 -1 -53 4 -53 8 0 -10
-68 -23 -86 -10 -14 -82 -7 -119 12 -23 11 -29 20 -24 35 4 11 2 19 -5 19 -6
0 -18 7 -26 15 -10 9 -35 15 -67 15 -44 0 -54 4 -63 23 -12 28 -8 47 12 47 9
0 14 -11 14 -28 0 -26 3 -29 36 -30 20 -1 45 -4 55 -7 13 -5 19 1 22 22 4 27
4 26 6 -4 2 -45 21 -42 21 3 0 22 4 33 10 29 6 -4 8 -14 6 -23 -3 -10 -1 -24
4 -32 7 -11 10 -3 10 28 0 28 4 41 10 37 7 -4 8 -24 4 -52 -5 -33 -4 -44 5
-39 6 4 11 25 11 46 0 58 8 70 46 70 20 0 34 -5 34 -12z m-225 -8 c3 -5 1 -10
-4 -10 -6 0 -11 5 -11 10 0 6 2 10 4 10 3 0 8 -4 11 -10z m15 -107 c-8 -3 -23
-12 -32 -21 -11 -9 -18 -11 -18 -4 0 13 29 32 50 31 13 -1 13 -1 0 -6z m605
-7 c24 -10 35 -22 35 -35 0 -25 -4 -26 -36 -4 -15 9 -29 12 -32 7 -11 -15 -60
-13 -66 2 -3 8 -13 14 -23 15 -25 1 36 28 65 29 12 0 38 -7 57 -14z m-847 -45
c-7 -11 -15 -18 -20 -15 -11 7 3 34 18 34 12 0 12 -4 2 -19z m97 -1 c3 -5 1
-10 -4 -10 -6 0 -11 5 -11 10 0 6 2 10 4 10 3 0 8 -4 11 -10z m2072 -16 c-3
-3 -12 -4 -19 -1 -8 3 -5 6 6 6 11 1 17 -2 13 -5z m63 -4 c8 -5 11 -10 5 -10
-5 0 -17 5 -25 10 -8 5 -10 10 -5 10 6 0 17 -5 25 -10z m-1495 -24 c-11 -7
-40 -17 -65 -20 -44 -7 -45 -7 -17 8 15 8 34 13 41 10 8 -3 17 -1 21 5 3 6 14
11 23 11 14 0 13 -2 -3 -14z m-399 -24 c-7 -7 -46 9 -46 18 0 5 11 4 25 -2 14
-6 23 -13 21 -16z m1384 -23 c0 -5 -16 -9 -35 -9 -32 0 -46 15 -29 33 8 8 64
-13 64 -24z m-1200 1 c0 -5 -4 -10 -10 -10 -5 0 -10 5 -10 10 0 6 5 10 10 10
6 0 10 -4 10 -10z"/>
<path d="M810 6445 c-7 -8 -11 -15 -9 -16 38 -7 49 -7 54 1 3 5 -3 14 -14 19
-14 8 -22 7 -31 -4z"/>
<path d="M1458 6433 c7 -3 16 -2 19 1 4 3 -2 6 -13 5 -11 0 -14 -3 -6 -6z"/>
<path d="M1200 6407 c0 -23 13 -28 75 -29 51 -2 88 13 72 28 -3 3 -38 8 -76
11 -59 4 -71 2 -71 -10z"/>
<path d="M1412 6403 c-18 -2 -30 -9 -26 -14 3 -5 9 -7 14 -4 10 6 26 -45 30
-95 6 -68 -1 -189 -12 -206 -11 -18 -20 -82 -23 -176 -2 -76 2 -115 21 -221 3
-15 8 -55 12 -89 5 -40 13 -64 23 -71 35 -22 133 52 113 84 -4 7 -8 91 -10
188 -3 180 -5 214 -18 242 -4 8 -2 28 4 43 5 15 10 45 10 67 0 22 7 56 15 77
9 20 20 57 26 82 5 25 12 52 15 61 3 13 -5 18 -38 23 -65 11 -119 14 -156 9z"/>
<path d="M1220 5780 c0 -5 5 -10 11 -10 5 0 7 5 4 10 -3 6 -8 10 -11 10 -2 0
-4 -4 -4 -10z"/>
<path d="M1276 5443 c-3 -3 0 -13 7 -21 10 -13 9 -15 -7 -9 -16 6 -17 5 -7 -7
7 -8 10 -20 6 -25 -4 -7 1 -8 12 -4 14 5 16 4 7 -8 -5 -8 -9 -24 -8 -37 1 -18
-1 -20 -13 -11 -11 10 -12 8 -7 -6 4 -10 3 -16 -2 -13 -5 4 -10 -24 -10 -63
l-2 -69 35 0 c21 0 32 4 28 11 -10 15 4 61 15 54 6 -3 10 -2 10 2 0 5 9 9 20
10 11 1 20 -3 20 -9 0 -12 41 -47 56 -48 16 0 26 27 29 76 1 23 5 47 10 53 13
21 -10 34 -34 19 -11 -7 -21 -16 -21 -21 0 -4 5 -5 12 -1 7 5 8 3 4 -5 -5 -7
-15 -10 -23 -7 -10 4 -13 1 -8 -13 3 -11 0 -23 -6 -27 -8 -5 -9 -3 -5 5 5 8 3
12 -5 10 -28 -3 -49 1 -49 12 0 5 5 7 10 4 6 -3 10 -2 10 3 0 5 -10 13 -22 17
-19 6 -20 8 -6 12 13 3 15 9 9 21 -5 9 -15 31 -22 47 -17 36 -34 56 -43 48z"/>
<path d="M1639 5323 c-9 -10 -26 -35 -38 -55 -13 -21 -26 -38 -30 -38 -12 0
-43 -59 -36 -70 3 -6 16 -10 29 -10 18 0 27 10 41 43 9 23 26 61 37 85 22 48
20 73 -3 45z"/>
<path d="M1288 5045 c-4 -4 -2 -18 3 -32 15 -40 19 -164 6 -162 -39 5 -45 -1
-34 -26 14 -30 37 -41 49 -23 5 9 8 6 8 -9 0 -26 18 -31 27 -8 5 14 8 14 24
-1 11 -9 19 -13 19 -8 0 5 4 4 8 -2 4 -6 18 -14 32 -17 30 -7 42 13 61 101 6
30 17 66 25 80 8 15 14 31 14 36 0 5 8 18 17 28 24 27 4 38 -67 38 -30 0 -84
3 -120 6 -36 3 -68 3 -72 -1z"/>
<path d="M1070 4925 c1 -6 7 -21 16 -35 l15 -25 -7 25 c-7 26 -24 52 -24 35z"/>
<path d="M1100 4855 c0 -5 5 -17 10 -25 5 -8 10 -10 10 -5 0 6 -5 17 -10 25
-5 8 -10 11 -10 5z"/>
<path d="M1216 4743 c-9 -10 -7 -76 4 -93 6 -10 10 -11 10 -2 0 6 5 12 10 12
13 0 45 32 53 53 3 9 1 20 -5 24 -17 10 -64 14 -72 6z"/>
<path d="M1468 4723 c-15 -4 -18 -15 -18 -64 0 -36 4 -59 11 -59 6 0 9 -6 6
-14 -5 -14 10 -36 25 -36 4 0 8 11 8 24 0 14 5 28 10 31 6 3 10 25 10 49 0 47
-22 75 -52 69z"/>
<path d="M1296 4312 c-3 -3 -6 -14 -6 -25 0 -15 5 -18 23 -13 12 4 51 9 87 13
81 6 91 13 19 13 -30 0 -68 4 -86 9 -17 5 -34 7 -37 3z"/>
<path d="M622 3670 c3 -8 -3 -27 -13 -41 -10 -14 -16 -29 -13 -32 11 -11 346
-8 339 3 -3 6 -18 10 -33 9 -69 -2 -208 15 -217 26 -5 7 -23 21 -39 31 -23 14
-28 15 -24 4z"/>
<path d="M1226 3602 c-9 -15 46 -22 192 -23 121 -1 154 3 141 16 -10 10 -327
17 -333 7z"/>
<path d="M1457 3444 c-4 -4 -7 -17 -7 -28 1 -19 1 -20 11 -3 11 19 8 43 -4 31z"/>
<path d="M2747 5874 c-3 -5 1 -15 9 -22 16 -14 18 -5 5 17 -5 7 -11 9 -14 5z"/>
<path d="M2792 5803 c8 -10 19 -31 26 -46 10 -23 9 -29 -4 -34 -12 -4 -9 -9
13 -20 34 -17 98 -105 97 -133 0 -11 6 -20 14 -20 20 0 40 -30 34 -52 -4 -16
-15 -18 -92 -18 -66 0 -91 4 -100 15 -17 21 -14 23 61 39 l64 14 -72 -5 c-79
-6 -75 -9 -77 55 -1 18 -8 37 -16 42 -11 7 -11 10 -2 10 7 0 10 5 7 10 -3 6
-1 10 4 10 6 0 11 -4 11 -10 0 -5 3 -10 8 -10 4 0 7 12 7 28 1 30 -22 54 -44
46 -20 -7 -51 5 -51 21 0 7 -7 15 -15 19 -8 3 -15 13 -16 23 0 10 -5 5 -10
-12 -10 -32 -12 -304 -3 -330 5 -12 23 -15 93 -14 117 2 131 -3 131 -50 0 -27
7 -44 25 -61 14 -14 25 -33 24 -45 -2 -36 1 -43 40 -89 l39 -45 12 30 c12 28
14 29 34 15 11 -8 20 -20 18 -26 -4 -18 18 -40 40 -40 19 0 19 -1 -3 -19 l-23
-19 61 -7 c34 -4 66 -4 71 -1 15 9 7 685 -8 699 -10 10 -12 7 -7 -11 4 -18 0
-25 -19 -32 -29 -11 -31 -26 -5 -35 20 -6 27 -55 7 -55 -8 0 -8 -2 0 -8 6 -4
11 -23 10 -42 -1 -32 -4 -35 -32 -38 -23 -2 -39 5 -63 27 -18 17 -40 31 -48
31 -10 0 -12 6 -8 20 4 13 -1 25 -14 37 -12 10 -21 22 -21 27 0 5 3 6 7 3 7
-8 33 11 33 24 0 5 -22 9 -50 9 -53 0 -101 17 -99 34 1 6 0 22 -1 36 -2 18 -4
20 -7 7 -3 -13 -11 -16 -31 -11 -15 4 -31 11 -36 15 -18 16 -29 9 -14 -8z
m185 -235 c-3 -8 -6 -5 -6 6 -1 11 2 17 5 13 3 -3 4 -12 1 -19z m2 -227 c7 -5
10 -14 7 -20 -11 -18 -29 -13 -22 7 5 14 4 14 -9 -2 -12 -15 -15 -16 -15 -5 0
27 15 35 39 20z"/>
<path d="M2987 5113 c-13 -12 -7 -23 13 -23 13 0 18 5 14 15 -7 16 -17 19 -27
8z"/>
<path d="M3308 4902 c-6 -92 13 -255 33 -288 10 -17 19 -38 19 -46 0 -35 74
-60 83 -28 4 17 -14 50 -27 50 -4 0 -14 7 -22 15 -14 13 -14 16 0 21 9 3 16
12 16 20 0 8 4 14 10 14 5 0 7 -7 4 -15 -4 -9 0 -15 10 -15 9 0 16 -4 16 -8 0
-8 43 -32 55 -32 3 0 5 8 4 18 0 9 -3 12 -5 5 -3 -7 -12 -9 -20 -6 -11 4 -8 9
12 19 49 26 94 13 94 -27 0 -20 56 -44 66 -28 4 6 11 6 20 -2 8 -6 17 -10 19
-7 8 8 -26 48 -40 48 -19 0 -10 22 16 38 14 9 24 10 33 3 33 -28 70 2 47 38
-15 23 8 48 37 43 22 -4 24 -2 17 14 -4 10 -8 25 -8 32 0 6 -8 12 -18 12 -10
0 -21 5 -25 11 -4 7 1 9 12 7 20 -4 57 29 49 42 -3 5 -1 20 5 34 5 14 6 27 2
30 -8 5 -249 23 -404 31 l-107 5 -3 -48z"/>
<path d="M3846 4911 c-4 -5 -2 -12 3 -15 5 -4 12 -2 15 3 4 5 2 12 -3 15 -5 4
-12 2 -15 -3z"/>
<path d="M3675 4630 c3 -5 10 -10 16 -10 5 0 9 5 9 10 0 6 -7 10 -16 10 -8 0
-12 -4 -9 -10z"/>
<path d="M3790 4630 c0 -5 5 -10 11 -10 5 0 7 5 4 10 -3 6 -8 10 -11 10 -2 0
-4 -4 -4 -10z"/>
<path d="M3474 4558 c-4 -7 -3 -8 4 -4 7 4 12 4 13 -1 0 -4 2 -16 4 -25 2 -11
-2 -15 -11 -11 -10 4 -12 0 -7 -13 11 -30 26 -40 56 -37 15 1 25 -2 23 -6 -3
-4 9 -6 27 -4 53 6 77 13 77 21 0 9 -58 42 -75 42 -7 0 -22 11 -33 25 -21 26
-65 34 -78 13z"/>
<path d="M2865 4248 c3 -7 24 -14 48 -15 23 -2 67 -6 97 -9 30 -4 64 -6 75 -6
169 6 217 6 256 -4 27 -7 52 -8 60 -3 8 5 24 9 37 9 12 0 22 4 22 9 0 5 -10 9
-22 9 -13 0 -75 2 -138 6 -308 15 -440 16 -435 4z"/>
<path d="M3515 4224 c22 -9 69 -20 105 -26 35 -5 75 -17 89 -27 24 -18 26 -18
67 3 31 15 43 27 44 44 0 22 0 22 -172 22 -167 -1 -172 -1 -133 -16z"/>
<path d="M3904 4215 c-9 -22 1 -29 15 -11 8 10 9 16 1 21 -5 3 -13 -1 -16 -10z"/>
<path d="M3601 3564 c0 -11 3 -14 6 -6 3 7 2 16 -1 19 -3 4 -6 -2 -5 -13z"/>
<path d="M3930 3409 c-25 -4 -71 -8 -103 -8 -35 -1 -64 -6 -72 -14 -11 -12 -7
-19 28 -45 22 -18 47 -32 54 -32 18 0 131 60 145 77 18 22 -2 30 -52 22z"/>
<path d="M4003 3333 c-31 -21 -30 -42 2 -35 18 3 25 11 25 28 0 28 1 27 -27 7z"/>
<path d="M2640 2880 c-9 -5 -10 -145 -5 -546 3 -296 6 -631 6 -744 -1 -128 4
-227 11 -265 l13 -60 65 2 c36 1 91 2 123 3 31 1 57 6 57 11 0 6 9 8 19 4 11
-3 22 -1 26 5 3 5 11 10 16 10 6 0 7 -4 4 -10 -3 -6 1 -7 10 -4 8 4 21 2 28
-4 20 -16 76 -20 88 -6 6 7 16 11 23 8 7 -3 19 2 26 11 12 14 14 14 31 0 16
-15 18 -15 24 4 6 19 9 727 6 1252 -1 147 0 273 1 280 2 10 -11 14 -52 15 -30
0 -94 6 -143 12 -61 8 -96 8 -117 0 -33 -11 -65 -4 -55 12 8 13 -8 12 -65 -1
-36 -8 -46 -7 -55 5 -11 15 -64 19 -85 6z m450 -961 c0 -11 -4 -17 -10 -14 -5
3 -10 13 -10 21 0 8 5 14 10 14 6 0 10 -9 10 -21z m-136 -104 c3 -8 1 -15 -4
-15 -6 0 -10 7 -10 15 0 8 2 15 4 15 2 0 6 -7 10 -15z m2 -359 c27 7 31 -1 11
-20 -17 -17 -69 -15 -75 3 -3 10 0 12 12 8 11 -4 16 -1 17 11 0 10 3 12 6 5 3
-8 14 -11 29 -7z m-196 -47 c0 -6 -4 -7 -10 -4 -5 3 -10 11 -10 16 0 6 5 7 10
4 6 -3 10 -11 10 -16z"/>
<path d="M3322 2863 c-10 -4 -10 -8 -2 -18 14 -16 40 -9 40 11 0 14 -14 17
-38 7z"/>
<path d="M2870 1250 c-12 -8 -10 -10 8 -10 13 0 20 4 17 10 -7 12 -6 12 -25 0z"/>
<path d="M2923 1243 c9 -2 25 -2 35 0 9 3 1 5 -18 5 -19 0 -27 -2 -17 -5z"/>
<path d="M3191 1199 c-1 -18 -2 -19 -266 -23 -104 -1 -194 0 -200 4 -5 4 -23
10 -38 12 -23 5 -30 1 -38 -19 -11 -29 -12 -107 -2 -117 4 -4 8 -15 8 -24 0
-17 29 -17 330 -7 39 1 105 3 147 3 l77 2 7 46 c4 32 2 61 -9 93 -8 25 -16 39
-16 30z"/>
<path d="M3981 971 c-7 -11 -16 -21 -22 -21 -5 0 -21 -7 -35 -16 -31 -21 -16
-44 28 -44 16 0 38 -5 49 -10 15 -8 19 -7 19 4 0 8 -5 18 -11 21 -5 4 -8 19
-5 33 3 15 2 33 -3 41 -7 11 -11 9 -20 -8z"/>
<path d="M3957 784 c-23 -12 -26 -18 -17 -34 20 -37 78 -11 66 28 -9 26 -12
26 -49 6z"/>
<path d="M3841 774 c-9 -11 -10 -19 -3 -26 14 -14 32 -1 32 23 0 23 -10 24
-29 3z"/>
<path d="M3933 427 c-13 -22 -12 -77 2 -77 13 0 55 58 55 77 0 14 -49 13 -57
0z"/>
<path d="M3910 261 c0 -12 6 -21 16 -21 9 0 14 7 12 17 -5 25 -28 28 -28 4z"/>
<path d="M2898 223 c7 -3 16 -2 19 1 4 3 -2 6 -13 5 -11 0 -14 -3 -6 -6z"/>
<path d="M5890 5319 c-15 -26 -9 -32 24 -23 31 7 33 19 6 34 -15 8 -21 6 -30
-11z"/>
<path d="M855 4441 c-10 -2 -24 -9 -31 -16 -10 -10 -5 -14 23 -23 28 -9 34 -8
29 3 -2 7 2 16 10 19 24 9 26 8 19 -14 -6 -18 -4 -19 20 -10 14 5 46 10 69 10
28 0 48 6 59 18 15 17 12 18 -82 17 -53 0 -106 -2 -116 -4z"/>
<path d="M2312 4210 c-7 -11 -8 -20 -3 -20 9 0 24 30 18 36 -1 2 -8 -6 -15
-16z"/>
<path d="M2360 3588 c0 -19 2 -20 10 -8 13 19 13 30 0 30 -5 0 -10 -10 -10
-22z"/>
<path d="M2293 245 c-1 -25 1 -44 5 -44 22 4 31 -4 34 -28 2 -14 9 -28 16 -31
11 -4 12 0 2 19 -10 18 -10 24 1 33 21 17 13 76 -11 76 -10 0 -21 -8 -23 -17
-3 -11 -5 -7 -6 10 -2 44 -16 31 -18 -18z"/>
<path d="M460 6460 c0 -5 17 -10 38 -9 30 0 33 2 17 9 -28 12 -55 12 -55 0z"/>
<path d="M6062 6310 c-27 -25 -27 -30 -3 -30 11 0 23 9 26 21 10 29 2 32 -23
9z"/>
<path d="M5205 6120 c-3 -5 -1 -10 4 -10 6 0 11 5 11 10 0 6 -2 10 -4 10 -3 0
-8 -4 -11 -10z"/>
<path d="M6030 6052 c0 -5 -8 -17 -19 -28 -21 -23 -38 -94 -22 -94 19 0 34 40
21 55 -9 11 -5 18 19 36 34 25 39 39 16 39 -8 0 -15 -4 -15 -8z"/>
<path d="M5955 5846 c-11 -8 -14 -15 -8 -19 6 -4 16 0 23 8 17 21 8 28 -15 11z"/>
<path d="M5856 5713 c-6 -14 -5 -15 5 -6 7 7 10 15 7 18 -3 3 -9 -2 -12 -12z"/>
<path d="M477 5148 c-9 -23 -15 -43 -13 -45 2 -2 11 15 20 38 9 23 15 43 13
45 -2 2 -11 -15 -20 -38z"/>
<path d="M43 5013 l-43 -4 0 -240 c0 -161 3 -239 11 -239 5 0 7 4 4 10 -4 6
12 9 41 7 l48 -2 8 39 c5 22 7 128 6 235 -3 217 3 201 -75 194z"/>
<path d="M5374 4980 c-29 -11 -36 -44 -13 -68 16 -18 16 -22 4 -32 -18 -15
-20 -53 -2 -48 6 3 17 23 22 45 6 23 13 45 18 49 9 10 9 52 0 57 -5 3 -18 1
-29 -3z"/>
<path d="M5360 4778 c0 -6 -8 -21 -17 -32 -18 -21 -18 -21 3 -3 11 9 26 17 32
17 6 0 9 7 6 15 -7 18 -24 20 -24 3z"/>
<path d="M202 4750 c0 -19 2 -27 5 -17 2 9 2 25 0 35 -3 9 -5 1 -5 -18z"/>
<path d="M6036 4701 c-3 -4 3 -16 13 -25 17 -16 18 -15 14 9 -5 25 -17 32 -27
16z"/>
<path d="M6001 4684 c0 -11 3 -14 6 -6 3 7 2 16 -1 19 -3 4 -6 -2 -5 -13z"/>
<path d="M6012 4610 c0 -14 2 -19 5 -12 2 6 2 18 0 25 -3 6 -5 1 -5 -13z"/>
<path d="M4990 4481 c-12 -24 -13 -44 -1 -37 8 5 22 56 15 56 -2 0 -8 -9 -14
-19z"/>
<path d="M5835 4460 c-30 -8 -30 -8 8 -9 20 0 37 4 37 9 0 11 -2 11 -45 0z"/>
<path d="M5301 4371 c-9 -6 -10 -11 -2 -15 13 -8 31 1 31 15 0 11 -11 11 -29
0z"/>
<path d="M13 4333 c-7 -2 -13 -13 -13 -24 0 -16 7 -19 45 -19 41 0 45 2 45 25
0 22 -4 25 -32 24 -18 0 -39 -3 -45 -6z"/>
<path d="M5281 4294 c0 -11 3 -14 6 -6 3 7 2 16 -1 19 -3 4 -6 -2 -5 -13z"/>
<path d="M5272 4247 c-12 -7 -19 -16 -16 -20 12 -12 23 -8 34 13 12 23 12 23
-18 7z"/>
<path d="M5292 4204 c-8 -15 -9 -32 -4 -41 7 -12 13 -9 31 20 26 42 26 47 3
47 -11 0 -24 -12 -30 -26z"/>
<path d="M5222 4170 c0 -14 2 -19 5 -12 2 6 2 18 0 25 -3 6 -5 1 -5 -13z"/>
<path d="M173 4164 c-3 -9 -1 -24 5 -34 15 -25 -9 -56 -50 -65 -48 -11 -128
-64 -128 -85 0 -10 5 -22 11 -25 11 -8 118 43 134 63 8 10 17 11 39 2 37 -14
50 -2 49 45 -1 19 3 38 8 41 15 9 10 61 -7 68 -28 11 -54 6 -61 -10z"/>
<path d="M5041 4151 c-8 -6 -9 -11 -3 -15 6 -3 14 -1 17 5 9 14 2 20 -14 10z"/>
<path d="M5550 4140 c-6 -11 -8 -20 -6 -20 3 0 10 9 16 20 6 11 8 20 6 20 -3
0 -10 -9 -16 -20z"/>
<path d="M5199 4093 c-1 -10 -1 -27 0 -38 2 -23 -53 -62 -64 -45 -10 17 -21
11 -34 -16 -15 -34 -9 -40 29 -24 17 7 39 13 50 14 10 0 28 13 40 29 26 32 35
29 44 -15 6 -28 8 -30 17 -16 12 21 -14 90 -33 86 -7 -2 -17 7 -23 20 -12 26
-25 29 -26 5z"/>
<path d="M5101 4081 c-8 -14 -7 -20 3 -24 18 -7 26 1 26 25 0 24 -17 23 -29
-1z"/>
<path d="M4968 4069 c-10 -10 -29 -19 -42 -19 -14 0 -28 -5 -31 -10 -4 -6 -14
-9 -23 -8 -11 2 -23 -11 -35 -37 -11 -22 -28 -46 -38 -53 -17 -12 -19 -46 -8
-132 5 -40 -2 -60 -22 -60 -12 0 -18 -4 -13 -11 4 -7 6 -40 6 -75 -1 -35 3
-64 8 -64 6 0 10 6 10 13 0 20 43 57 67 57 11 0 28 9 38 20 10 11 26 22 36 25
11 4 19 13 19 21 0 12 -5 11 -27 -3 -28 -19 -73 -25 -73 -11 0 4 4 8 9 8 6 0
35 53 66 118 30 64 64 134 75 154 36 67 20 114 -22 67z"/>
<path d="M5167 3944 c-15 -8 -32 -12 -37 -9 -6 4 -13 -1 -16 -9 -3 -9 -10 -14
-14 -11 -12 7 -40 -5 -40 -17 0 -6 14 -8 35 -4 38 7 42 1 20 -28 -20 -26 -19
-35 3 -29 9 2 25 22 35 44 11 22 26 46 34 55 22 21 13 25 -20 8z"/>
<path d="M211 3814 c0 -11 3 -14 6 -6 3 7 2 16 -1 19 -3 4 -6 -2 -5 -13z"/>
<path d="M5046 3785 c4 -8 10 -15 15 -15 5 0 9 7 9 15 0 8 -7 15 -15 15 -9 0
-12 -6 -9 -15z"/>
<path d="M5030 3670 c0 -5 4 -10 9 -10 6 0 13 5 16 10 3 6 -1 10 -9 10 -9 0
-16 -4 -16 -10z"/>
<path d="M4776 3574 c-4 -9 -4 -19 -1 -22 2 -3 7 3 11 12 4 9 4 19 1 22 -2 3
-7 -3 -11 -12z"/>
<path d="M4745 3500 c-3 -5 -4 -14 0 -19 3 -5 1 -12 -5 -16 -5 -3 -10 -12 -10
-18 1 -17 40 32 40 49 0 16 -16 19 -25 4z"/>
<path d="M5860 3449 c0 -5 5 -7 10 -4 6 3 10 8 10 11 0 2 -4 4 -10 4 -5 0 -10
-5 -10 -11z"/>
<path d="M4767 3278 c-26 -40 -30 -68 -12 -68 9 0 13 5 10 10 -3 6 -2 10 4 10
10 0 26 58 18 67 -3 2 -12 -6 -20 -19z"/>
<path d="M5810 3031 c0 -6 -6 -11 -14 -11 -11 0 -13 -9 -9 -37 7 -45 16 -58
37 -50 21 8 22 80 1 97 -10 9 -15 9 -15 1z"/>
<path d="M5755 2810 c-4 -6 -3 -40 0 -76 6 -51 11 -64 22 -60 8 3 12 2 9 -3
-3 -5 1 -12 10 -15 8 -3 12 -10 9 -16 -3 -5 1 -10 9 -10 9 0 16 6 16 13 1 6 5
46 10 87 6 54 5 77 -3 82 -18 11 -75 10 -82 -2z"/>
<path d="M2 2552 c-2 -27 1 -33 9 -25 6 6 17 9 24 7 7 -3 15 2 18 10 4 10 1
16 -8 16 -8 0 -15 4 -15 9 0 5 -6 11 -13 14 -8 3 -13 -8 -15 -31z"/>
<path d="M5805 2469 c-4 -17 -13 -33 -21 -36 -8 -3 -11 -9 -8 -14 3 -5 10 -7
15 -3 6 3 7 -4 3 -20 -5 -22 -3 -26 14 -26 19 0 21 6 20 65 -1 69 -12 85 -23
34z"/>
<path d="M6 2461 c-4 -7 -5 -15 -2 -18 9 -9 19 4 14 18 -4 11 -6 11 -12 0z"/>
<path d="M5404 2365 c2 -16 -1 -41 -9 -54 l-13 -25 -15 30 c-9 17 -23 37 -32
44 -15 13 -20 11 -36 -8 -10 -13 -16 -28 -13 -35 2 -7 -16 -24 -41 -39 -25
-15 -45 -33 -45 -39 0 -6 6 -9 13 -6 6 3 19 8 28 11 12 5 14 0 11 -27 -2 -22
2 -38 12 -46 9 -8 16 -20 16 -28 0 -8 5 -24 11 -35 9 -17 13 -18 20 -7 5 8 9
24 9 37 0 12 7 25 15 28 8 4 21 28 30 56 14 50 47 87 76 88 22 0 28 8 22 31
-3 11 -11 18 -19 17 -7 -2 -20 6 -29 17 -16 19 -16 19 -11 -10z m-84 -64 c0
-12 -20 -25 -27 -18 -7 7 6 27 18 27 5 0 9 -4 9 -9z"/>
<path d="M5538 2359 c6 -7 12 -21 12 -31 0 -22 13 -23 29 -4 10 12 6 18 -21
32 -20 10 -28 11 -20 3z"/>
<path d="M5755 2239 c-4 -6 -4 -38 -1 -72 4 -34 9 -100 12 -147 3 -58 9 -89
19 -96 8 -6 15 -17 15 -24 0 -10 -4 -9 -16 1 -15 12 -16 11 -9 -11 5 -14 9
-36 11 -49 3 -31 30 -59 44 -45 6 6 11 89 11 214 1 199 1 204 -21 222 -25 20
-55 24 -65 7z"/>
<path d="M350 1790 c0 -5 5 -10 11 -10 5 0 7 5 4 10 -3 6 -8 10 -11 10 -2 0
-4 -4 -4 -10z"/>
<path d="M5944 1771 c4 -5 2 -21 -4 -36 -14 -37 -65 -55 -155 -55 -72 0 -75
-1 -75 -24 0 -13 7 -26 15 -29 8 -4 68 -3 135 0 141 7 153 14 121 68 -12 20
-21 47 -21 61 0 13 -5 24 -11 24 -5 0 -8 -4 -5 -9z"/>
<path d="M0 1475 c0 -32 2 -36 15 -25 8 7 15 18 15 25 0 7 -7 18 -15 25 -13
11 -15 7 -15 -25z"/>
<path d="M1 994 c-1 -17 6 -37 13 -44 8 -6 20 -35 27 -64 11 -49 10 -56 -15
-104 -26 -51 -26 -57 -24 -210 l3 -157 43 54 c39 49 42 57 37 95 -21 140 -14
169 41 168 41 0 52 13 59 66 6 47 43 132 57 132 12 0 48 43 42 51 -2 5 -15 4
-27 -1 -38 -17 -157 -38 -180 -32 -24 6 -61 39 -70 62 -3 8 -6 1 -6 -16z"/>
<path d="M1406 774 c-22 -39 -24 -48 -12 -60 22 -21 33 -17 60 22 24 35 24 38
8 60 -9 13 -20 24 -24 24 -3 0 -18 -21 -32 -46z"/>
<path d="M605 510 c-4 -7 -43 -9 -103 -7 -54 2 -108 1 -122 -3 -25 -6 -25 -6
12 -31 36 -24 37 -26 22 -48 -15 -20 -15 -24 0 -40 9 -10 13 -20 10 -24 -11
-10 30 4 46 16 8 7 22 21 30 32 8 11 11 17 6 13 -5 -4 -17 -3 -28 3 -17 9 -17
11 -2 27 13 12 19 13 22 4 2 -6 8 -12 13 -12 6 0 8 4 5 9 -8 12 30 21 97 21
54 0 57 1 57 25 0 21 -5 25 -29 25 -17 0 -33 -5 -36 -10z"/>
<path d="M625 428 c-29 -16 -29 -16 -11 -33 23 -24 11 -34 -32 -29 -27 4 -33
3 -21 -5 8 -5 27 -11 41 -13 14 -2 33 -9 41 -16 13 -11 16 -9 20 15 8 41 3 86
-8 89 -5 2 -19 -2 -30 -8z"/>
<path d="M5145 351 c-3 -6 14 -12 37 -14 l43 -4 -48 -1 c-44 -2 -47 -4 -37
-21 5 -11 10 -41 10 -68 0 -26 5 -75 11 -108 6 -33 12 -72 13 -87 2 -46 13
-49 162 -46 l139 3 7 75 c14 151 26 232 37 243 9 9 -6 15 -56 24 -82 14 -309
17 -318 4z"/>
<path d="M1370 250 c0 -5 5 -10 10 -10 6 0 10 5 10 10 0 6 -4 10 -10 10 -5 0
-10 -4 -10 -10z"/>
<path d="M4463 193 c-18 -7 -16 -23 2 -23 8 0 15 7 15 15 0 8 -1 15 -2 14 -2
0 -9 -3 -15 -6z"/>
<path d="M1370 180 c0 -5 5 -10 11 -10 5 0 7 5 4 10 -3 6 -8 10 -11 10 -2 0
-4 -4 -4 -10z"/>
<path d="M1575 140 c-16 -6 -17 -9 -5 -13 26 -9 48 -4 43 10 -6 15 -10 15 -38
3z"/>
<path d="M4726 120 c-43 -4 -104 -13 -136 -20 -49 -10 -57 -15 -53 -31 4 -13
0 -19 -11 -19 -21 0 -21 -19 0 -27 13 -5 13 -8 2 -15 -8 -5 36 -8 112 -6 124
4 126 4 193 42 37 21 67 40 67 43 0 3 -10 13 -22 24 -25 20 -32 20 -152 9z"/>
<path d="M320 109 c0 -5 4 -8 9 -4 5 3 12 1 16 -5 10 -15 35 -12 35 5 0 10
-10 15 -30 15 -16 0 -30 -5 -30 -11z"/>
<path d="M987 76 c-27 -20 -20 -27 21 -24 20 2 36 8 35 13 -2 6 -6 10 -10 10
-5 0 -13 3 -18 7 -6 3 -18 1 -28 -6z"/>
<path d="M95 70 c-3 -5 3 -10 15 -10 12 0 18 5 15 10 -3 6 -10 10 -15 10 -5 0
-12 -4 -15 -10z"/>
<path d="M1590 51 c10 -19 9 -25 -1 -32 -10 -6 -8 -9 9 -9 27 0 27 8 1 40 -20
25 -20 25 -9 1z"/>
<path d="M413 31 c-11 -17 -9 -21 8 -26 11 -4 23 -4 26 -1 4 3 1 6 -6 6 -8 0
-10 7 -6 20 8 26 -6 26 -22 1z"/>
<path d="M5050 21 c61 -15 117 -21 99 -11 -9 5 -43 12 -75 15 -46 4 -51 3 -24
-4z"/>
<path d="M490 10 c0 -6 26 -10 57 -10 68 0 67 5 -4 13 -31 4 -53 2 -53 -3z"/>
</g>
</svg>
